<svg xmlns="http://www.w3.org/2000/svg" width="355" height="367" version="1.2">
 <title>TBi4i8fv_400x400</title>

 <g>
  
  <g id="Background">
   
   <path id="Path 1" fill-rule="evenodd" class="s1" d="m105.9,4.5c2.5,0.4 7.5,1.8 11.1,3.2c3.6,1.3 9,3.9 12,5.7c3,1.9 7.7,5.8 10.4,8.7c2.7,3 6,7.2 7.4,9.4c1.4,2.2 3.7,6.9 5.2,10.5c1.5,3.6 3.4,9.4 4.3,13c0.8,3.6 2.3,11.2 3.1,17c0.8,5.8 2.2,19.3 3.1,30c0.8,10.7 1.9,23.5 2.2,28.5c0.7,8.1 1.1,9.4 4,13.3c1.8,2.3 3.1,4.5 2.8,4.9c-0.3,0.5 -1.4,-0.3 -2.5,-1.7c-1.1,-1.4 -2.3,-2.3 -2.6,-2c-0.3,0.3 0.2,9.7 1.1,21c0.8,11.3 2.2,28.6 3,38.5c0.8,9.9 2.2,27.4 3.1,39c0.9,11.6 2,22.8 3.3,29l-0.1,-4.5c0,-2.5 0.1,-24.6 0.1,-49.3c0.1,-29.4 0.4,-44.5 1.1,-44.2c0.6,0.3 1.1,17.9 1.2,49.3c0,26.8 0.3,47.1 0.5,45.2c0.2,-1.9 1,-11.4 1.8,-21c0.8,-9.6 2.6,-32.6 4.1,-51c1.4,-18.4 2.4,-35 1.9,-40l-7.5,6c-4.1,3.2 -7.7,5.7 -8,5.5c-0.3,-0.3 3.4,-4.7 17,-19.5l1,-11.3c0.5,-6.1 1.9,-22.2 3,-35.7c1.1,-13.5 2.5,-27.7 3.1,-31.5c0.6,-3.8 1.9,-10.6 3,-15c1.1,-4.4 3.4,-11.1 5,-15c1.7,-3.8 4.9,-9.5 7,-12.5c2.1,-3 5.8,-7.1 8.1,-9.1c2.4,-2 6.5,-4.9 9.3,-6.6c2.7,-1.6 7.7,-3.9 11,-5.1c3.3,-1.2 8.1,-2.4 10.7,-2.7c2.9,-0.3 4.8,-0.1 4.8,0.5c0,0.6 -2.1,1.3 -4.8,1.6c-2.6,0.3 -7.4,1.6 -10.7,2.8c-3.3,1.3 -8.3,3.6 -11,5.2c-2.8,1.6 -7.5,5.4 -10.5,8.5c-3,3 -7,8.4 -8.9,12c-1.9,3.5 -4.4,9.3 -5.6,12.9c-1.2,3.6 -3,10.1 -3.8,14.5c-0.9,4.4 -2.1,12 -2.6,17c-0.6,5 -2,21.2 -3.1,36c-1.1,14.8 -2.3,27.6 -2.5,28.3c-0.3,0.6 -0.1,1.2 0.5,1.2c0.6,0 3.3,-2.4 6,-5.3c2.8,-2.8 5.3,-6.3 5.6,-7.7c0.4,-1.4 1.8,-3.7 3.3,-5.2c2,-2.1 4.2,-3 9.1,-3.9c3.6,-0.6 7.7,-1.7 9.2,-2.5c1.6,-0.8 3.7,-2.6 4.9,-4.1c1.1,-1.6 2.5,-4.7 3,-7c0.5,-2.4 1.3,-4.3 1.9,-4.3c0.6,0 1,0.6 1,1.3c0,0.6 -0.5,2.9 -1,5c-0.6,2 -2.3,5.2 -3.8,7c-1.6,1.7 -4.2,3.7 -5.8,4.4c-1.6,0.6 -3.7,1.4 -4.7,1.7c-1.5,0.5 -1.5,0.8 -0.3,2.8c0.8,1.3 1.8,3.9 2.1,5.8c0.4,1.9 0.2,5.2 -0.4,7.3c-0.7,2.5 -3.6,6.2 -8.9,11.4c-6,6 -8.1,8.8 -9.1,12.3c-0.8,2.8 -1,6 -0.5,8.5c0.4,2.2 1.8,5.2 3.1,6.7c1.3,1.6 2.6,2.8 3,2.8c0.5,0 1.3,-1.4 2,-3.2c0.7,-1.8 2.5,-4.6 4,-6.1c1.9,-1.9 4.2,-3 7.3,-3.4c3.3,-0.4 5.6,-0.1 8.4,1.3c2.2,1.1 5.8,3.5 8,5.5c2.3,2 6.4,6.5 9.3,10c2.8,3.5 7.4,11.1 10.2,16.9c2.7,5.8 6.1,14.6 7.6,19.5c1.5,5.3 3.2,15.6 4.2,25c1.3,13 1.4,17.6 0.5,24.5c-0.6,4.7 -2.5,12.6 -4.1,17.5c-1.7,4.9 -3.5,9.4 -4,10c-0.6,0.6 -1.7,0.7 -2.6,0.3c-0.8,-0.5 -4.1,-6.1 -7.3,-12.6c-5.3,-11.1 -6.2,-12.3 -20.7,-24.4l-0.3,14.6c-0.1,8.3 0.2,15.5 0.8,16.6q1,2 0,4c-0.6,1.3 -0.8,9.8 -0.4,23.2c0.4,13.9 1.1,22 1.8,23.3c0.7,1.1 2.8,2.6 4.7,3.4c3,1.3 3.2,1.6 1.4,2.2c-1.1,0.4 -3.1,0.8 -4.5,0.8c-1.9,0.1 -3.9,1.9 -8.5,8.1c-3.3,4.4 -6.3,8 -6.8,8c-0.4,0 -0.1,-1.7 0.7,-3.8c0.7,-2 1.8,-4.7 2.5,-6c0.8,-1.7 0.8,-2.2 -0.2,-2.2c-0.6,0 -3.1,0.9 -5.5,2c-2.3,1.1 -4.2,1.7 -4.2,1.2c0,-0.4 1.7,-2.1 7.5,-7.1l-4.3,-0.1c-2.3,0 -4.2,-0.3 -4.2,-0.8c0,-0.4 3.5,-1.9 15.5,-5.9l0.3,-21.9c0.1,-12 -0.1,-22.6 -0.4,-23.4c-0.4,-0.8 -0.8,-5.3 -0.9,-10c-0.1,-4.7 -0.6,-13.2 -2,-29.4l2.2,1.2c1.3,0.7 2.5,1.1 2.7,0.9c0.3,-0.1 -2.1,-2.9 -5.3,-6.2c-3.1,-3.3 -8.8,-9.8 -12.6,-14.5c-3.8,-4.7 -8.9,-11.7 -11.4,-15.5c-2.4,-3.9 -5.7,-9.7 -7.3,-13c-1.5,-3.3 -3.4,-8.9 -4.2,-12.5c-0.8,-3.6 -1.5,-6.3 -1.6,-6c-0.1,0.3 -1,10.6 -2,23c-1.1,12.4 -1.9,24.5 -2,27c0,2.5 0.1,4.3 0.4,4c0.2,-0.3 1.4,-8.4 2.6,-18c1.2,-9.6 2.6,-17.9 3.1,-18.5c0.6,-0.6 0.9,-0.3 0.9,1c0,1.1 -1.4,12.6 -3.1,25.5c-1.6,12.9 -3.7,28.9 -4.5,35.5c-0.7,6.6 -1.6,13.6 -1.9,15.5c-0.3,1.9 -0.3,3.1 0,2.5c0.2,-0.6 4.3,-13.8 9,-29.5c4.7,-15.7 8.8,-28.7 9,-29c0.3,-0.3 0.7,-0.3 1,0c0.3,0.3 -2.2,9.7 -5.5,21c-3.4,11.3 -5.9,20.9 -5.7,21.5c0.2,0.6 3.4,-7.2 7.3,-17.2c3.8,-10.1 7.2,-18.3 7.6,-18.3c0.5,0 0.8,0.4 0.8,1c0,0.6 -5.4,15.1 -12,32.2c-6.6,17.2 -12,32.3 -12,33.5c0,1.9 0.8,2.5 4.2,3.4c2.4,0.6 5.4,1.9 6.8,2.8c1.4,0.9 3.3,2.5 4.2,3.6c1.1,1.3 1.7,3.7 1.7,6.5c0,3.8 -0.5,5 -3.2,7.5c-1.8,1.6 -5.1,3.6 -7.2,4.2c-2.2,0.7 -6.9,1.3 -10.5,1.3c-4.9,0 -7.7,-0.6 -11.5,-2.4c-2.9,-1.5 -5.7,-3.8 -6.8,-5.6c-0.9,-1.6 -1.7,-4.4 -1.7,-6c0,-1.7 1,-4.2 2.4,-5.8c1.3,-1.5 4.1,-3.5 6.2,-4.4c2.1,-0.9 5.1,-1.9 6.6,-2.2c2.5,-0.5 2.7,-0.9 2.2,-3.9c-0.3,-1.7 -2.1,-7 -3.9,-11.7c-1.8,-4.7 -7.2,-18.9 -12,-31.5c-4.8,-12.7 -9.6,-25.4 -10.6,-28.3c-1.1,-2.8 -1.9,-5.8 -1.9,-6.5q0,-1.2 0.9,-0.2c0.5,0.6 3.3,7.1 6.1,14.5c2.8,7.4 6.8,17.9 8.8,23.3c2,5.4 3.8,9.4 4,9c0.2,-0.4 -2.5,-10 -5.8,-21.3c-3.4,-11.3 -7,-23.4 -8.1,-27c-1,-3.6 -1.9,-6.6 -1.9,-6.8c0,-0.1 0.4,-0.2 1,-0.2c0.6,0 2.5,5.1 4.4,11.2c1.9,6.2 5.9,19.9 9.1,30.3c3.1,10.4 6.4,21.3 7.3,24.2c1,2.9 1.8,5.1 1.9,5c0.1,-0.1 -0.5,-5.4 -1.3,-11.7c-0.8,-6.3 -2.6,-19.8 -3.9,-30c-1.4,-10.2 -3.1,-23.9 -4,-30.5c-0.9,-6.6 -2,-14.9 -2.5,-18.5c-0.6,-3.6 -0.8,-6.7 -0.5,-7c0.3,-0.3 0.7,-0.3 1,0c0.3,0.3 2.3,13.8 4.5,30c2.2,16.2 4.2,30.2 4.4,31c0.2,0.8 0.4,0.4 0.5,-1c0.1,-1.4 -1,-16.7 -2.4,-34c-1.3,-17.3 -3.1,-40.5 -4,-51.5c-0.8,-11 -1.5,-21 -1.5,-22.3c0,-1.4 -3.1,-5.4 -9,-11.5c-8.3,-8.5 -9,-9.1 -10.2,-7.3c-1.1,1.6 -0.8,2.4 2.5,6c2,2.2 4.6,5.9 5.7,8.1c1,2.2 2.7,7.4 3.5,11.5c0.9,4.2 1.7,12.7 1.8,19.5c0,6.7 -0.5,14.7 -1.2,18c-0.8,3.3 -2.6,9.4 -4.2,13.5c-1.6,4.1 -5,11.1 -7.6,15.6c-2.7,4.4 -7.6,12 -11,17c-3.4,4.9 -8,11 -10.2,13.6c-2.3,2.7 -3.7,4.8 -3.3,4.8c0.4,0 1.4,-0.6 2.1,-1.3c1,-1 1.1,2.8 0.7,18.8c-0.2,11 -0.7,21.1 -1,22.5c-0.2,1.4 -0.7,13 -1.6,49l5.2,1.9c2.9,1 6.6,2.5 8.1,3.2c1.5,0.8 2.7,1.6 2.7,1.9c0,0.3 -1.6,0.4 -3.5,0.2c-1.9,-0.1 -3.5,0.1 -3.5,0.5c0,0.5 1.3,2 2.8,3.5c1.5,1.5 2.5,3 2.2,3.3c-0.3,0.3 -2.2,-0.5 -4.3,-1.7c-2.1,-1.3 -4,-2.1 -4.2,-1.8c-0.2,0.3 0.3,3.2 1.1,6.5c0.8,3.3 1.3,6.1 1.2,6.2c-0.2,0.2 -2.8,-3.5 -5.8,-8.2c-5.3,-8.1 -5.7,-8.4 -9.3,-8.5c-2,0 -3.7,-0.4 -3.7,-1c0,-0.6 1.6,-1.9 3.5,-3c3.3,-1.9 3.5,-2.3 3.5,-7.3c0.1,-2.8 0.5,-13.9 1,-24.5c0.8,-15 0.7,-19.6 -0.3,-21.1c-1,-1.6 -1,-2.5 0,-4.5c0.9,-1.8 1.3,-7.8 1.3,-34.1l-5.1,5c-4.1,4 -6.6,8 -12.5,20.2c-4.4,9.1 -7.9,15.2 -8.7,15c-0.6,-0.2 -2.4,-3.9 -3.9,-8.3c-1.4,-4.3 -3.4,-11.7 -4.4,-16.4c-1.3,-6.7 -1.5,-11.2 -1,-21.3c0.3,-7 1.1,-16.2 1.7,-20.5c0.6,-4.2 2.1,-12.2 3.5,-17.7c1.4,-5.5 3.4,-12.9 4.6,-16.5c1.1,-3.6 3.5,-9.4 5.2,-13c1.8,-3.6 5.1,-9.2 7.3,-12.5c2.2,-3.3 5.8,-7.7 11.8,-13.5l-5.9,-12.8c-3.2,-7 -8.4,-17.6 -11.5,-23.6c-3.1,-6 -7.1,-12.4 -8.9,-14.2c-1.7,-1.9 -4.4,-3.7 -6,-4c-1.8,-0.4 -3.5,0 -5.2,1.3c-1.4,1 -4.2,5.2 -6.2,9.3c-2,4.1 -4.8,12 -6.2,17.5c-1.5,5.5 -3.5,15.4 -4.5,22c-1.1,6.6 -2.7,22.6 -3.7,35.5c-0.9,12.9 -1.8,23.7 -2,24c-0.2,0.3 -0.7,0.3 -1,0c-0.3,-0.3 0,-8.6 0.6,-18.5c0.5,-9.9 1.7,-23.4 2.5,-30c0.8,-6.6 2.2,-15.6 3,-20c0.8,-4.4 2.6,-11.9 4,-16.8c1.4,-4.8 3.8,-11.5 5.4,-15c1.6,-3.4 4.3,-7.4 6,-9c1.8,-1.6 4.2,-2.7 5.8,-2.7c1.6,0 4.1,0.9 5.8,1.9c1.6,1.1 4.2,3.7 5.7,6c1.6,2.3 5.9,10.3 9.7,17.8c3.8,7.6 8.3,17.2 10.1,21.3c1.8,4.1 3.5,7.9 3.9,8.3c0.3,0.5 1.6,0.4 2.8,-0.2c1.4,-0.7 3.9,-0.8 6,-0.4c2.1,0.4 5,2 6.5,3.5c1.6,1.5 3.4,4.6 4,6.8c1.1,3.2 1.5,3.7 2.7,2.7c0.8,-0.7 2,-2.7 2.8,-4.5c0.7,-1.7 1.3,-5.3 1.3,-8c0,-2.6 -0.4,-6.3 -1,-8.2c-0.5,-1.9 -3.8,-6.8 -7.5,-11c-3.6,-4.1 -7,-9.1 -7.6,-11c-0.7,-1.9 -1,-5.8 -0.8,-8.6c0.2,-3.1 1.1,-5.9 2.1,-7c1.7,-1.8 1.6,-1.9 -2.2,-3.2c-2.2,-0.6 -5.4,-2.4 -7.1,-4c-1.8,-1.5 -4,-4.3 -4.9,-6.2c-1,-1.9 -2,-5 -2.4,-6.8c-0.3,-1.7 -0.3,-3.4 0.1,-3.6c0.5,-0.3 1.5,2.1 2.5,5.2c1.1,4 2.7,6.7 5.2,8.9c2,1.8 5.3,3.7 7.3,4.2c2.1,0.5 5.8,1.4 8.3,1.9c2.5,0.6 4.7,0.8 5,0.6c0.3,-0.3 -0.6,-4.2 -1.9,-8.7c-1.3,-4.5 -5.5,-17.6 -9.3,-29.2c-4,-12.1 -8.9,-24.8 -11.6,-30c-3.1,-5.8 -6.8,-11.1 -10.7,-15c-3.3,-3.4 -8.2,-7.2 -11,-8.4c-2.8,-1.3 -7.9,-2.8 -11.5,-3.4c-4.8,-0.8 -8.2,-0.8 -13,0.1c-3.6,0.6 -9.4,2.6 -13,4.3c-3.6,1.7 -8.8,4.9 -11.6,7.2c-2.8,2.3 -6.8,6.4 -8.9,9.2c-2,2.7 -5.2,8.3 -7.1,12.2c-1.9,4 -4.5,10.8 -5.9,15c-1.4,4.3 -3.6,13.6 -4.9,20.8c-1.3,7.1 -3.1,17.3 -4,22.5c-0.9,5.2 -2.5,16.2 -3.6,24.5c-1,8.2 -2.6,20.6 -3.4,27.5c-0.9,6.9 -2.4,19.9 -3.5,29c-1.1,9.1 -2.2,19.3 -2.5,22.7c-0.3,3.5 -1.1,6.3 -1.6,6.3c-0.6,0 -1,-0.9 -1,-2c0,-1.1 0.7,-8 1.5,-15.3c0.9,-7.2 3.1,-25.8 5,-41.2c2,-15.4 4.9,-37 6.6,-48c1.7,-11 4.1,-25.2 5.4,-31.5c1.3,-6.3 3.6,-14.9 5,-19c1.4,-4.1 4.2,-10.9 6.3,-15c2.6,-5.3 5.9,-9.7 11.2,-15.1c5.1,-5.2 9.6,-8.6 14,-10.8c3.6,-1.7 9,-3.8 12,-4.6c3,-0.8 8,-1.5 11,-1.5c3,0 7.7,0.6 10.5,1.3c2.7,0.8 7.4,2.7 10.4,4.3c3,1.6 7.8,5.6 10.8,8.9c3.4,3.7 7.3,9.8 10.3,16c2.7,5.5 7.4,17.6 10.4,27c3.1,9.3 7.1,22.2 9,28.5c2.2,7.4 3.1,11.9 2.5,12.7c-0.6,0.8 -0.4,2.1 0.6,3.5c0.8,1.3 1.5,2.9 1.5,3.5c0,0.7 3.4,5.9 7.6,11.5c4.2,5.7 8.1,10.7 8.6,11.3c0.7,0.7 0.8,-1.4 0.4,-6c-0.3,-3.8 -1.5,-17.6 -2.6,-30.5c-1.1,-12.9 -2.7,-27.3 -3.5,-32c-0.9,-4.7 -2.7,-12.1 -4.1,-16.5c-1.4,-4.4 -4.2,-10.9 -6.2,-14.5c-1.9,-3.6 -6.3,-9.2 -9.6,-12.5c-4,-4 -8.9,-7.5 -14.1,-10.1c-4.5,-2.3 -11.1,-4.7 -15.2,-5.5c-3.9,-0.8 -6.9,-1.8 -6.6,-2.2c0.4,-0.5 2.7,-0.6 5.2,-0.2zm72.1,1.5c0.6,0 1,4.7 1,24l5.7,0.6c3.2,0.3 7.8,1.1 10.3,1.8c3.4,0.9 4.5,1.6 4.5,3.1c0,1.1 -1.1,2.5 -2.5,3.2c-1.4,0.7 -6.1,1.6 -10.5,2.1c-7.4,0.8 -7.7,0.9 -4,1.6c2.2,0.4 5.7,1.1 7.7,1.6c2.1,0.6 4,1.7 4.3,2.5c0.3,0.8 -0.3,2.2 -1.3,3c-0.9,0.8 -4.3,1.8 -7.6,2.3c-3.2,0.4 -6,1 -6.2,1.4c-0.2,0.5 1.1,1 2.8,1.3c1.8,0.3 3.9,1.2 4.5,2c0.7,0.8 1.1,2.2 0.8,3c-0.3,0.8 -1.1,1.7 -1.8,1.9c-0.6,0.2 -2.4,0.7 -4,1c-1.5,0.3 -2.5,1 -2.2,1.6c0.3,0.5 1.4,1 2.5,1c1.1,0 2,0.2 2,0.5c0,0.3 0.2,1.2 0.5,2c0.3,1 -0.5,1.8 -5.5,3.5l0,30c0,19.3 -0.4,30 -1,30c-0.6,0 -1.1,-10.7 -1.5,-59.5l-2.8,-1.2c-1.5,-0.7 -2.7,-2 -2.7,-2.8c0,-0.8 1.4,-2.1 6.1,-4l-4.8,-1.5c-3.6,-1.1 -4.8,-2 -4.8,-3.5c0,-1.5 1.2,-2.4 5,-3.6c4.4,-1.5 4.7,-1.7 2.5,-2.2c-1.4,-0.3 -4.5,-0.9 -7,-1.2c-2.5,-0.3 -5.1,-1.2 -5.8,-1.8c-0.7,-0.7 -1.3,-1.8 -1.2,-2.5c0,-0.6 1.6,-1.9 3.5,-2.7c1.9,-0.8 5.1,-1.5 7,-1.5c1.9,0 3.7,-0.3 3.9,-0.8c0.2,-0.4 -2.8,-1 -6.7,-1.3c-4,-0.4 -8.7,-1.4 -10.5,-2.3c-1.7,-0.9 -3.2,-2.1 -3.2,-2.6c0,-0.6 1,-1.7 2.2,-2.5c1.3,-0.8 6.1,-1.9 10.8,-2.5c4.7,-0.5 8.6,-1 8.7,-1c0.2,0 0.3,-5.4 0.3,-12c0,-7.3 0.4,-12 1,-12zm97,0c3.6,0 9,0.7 12,1.6c3,0.9 8.6,3.2 12.5,5.2c3.8,2.1 9.6,6.3 13,9.7c4.2,4.1 7.5,8.8 10.7,15c2.6,4.9 6,13.3 7.6,18.5c1.6,5.2 3.9,14.7 5.1,21c1.1,6.3 3,16.9 4.1,23.5c1.1,6.6 4.2,30.2 6.9,52.5c2.7,22.3 5.3,44 5.8,48.3c0.4,4.3 0.5,8.1 0,8.3c-0.4,0.2 -0.9,-0.6 -1.1,-1.9c-0.3,-1.2 -1.4,-9.9 -2.5,-19.2c-1.1,-9.3 -2.7,-23.1 -3.6,-30.5c-0.8,-7.4 -2.2,-18.9 -3.1,-25.5c-0.9,-6.6 -3.1,-22.1 -5.1,-34.5c-1.9,-12.4 -4.5,-26.8 -5.8,-32c-1.3,-5.2 -4,-13.6 -6.1,-18.5c-2,-5 -5.1,-11.4 -7,-14.3c-1.9,-2.8 -4.4,-6.4 -5.7,-7.8c-1.2,-1.4 -4.9,-4.6 -8.2,-7c-3.3,-2.3 -8.9,-5.4 -12.5,-6.9c-3.6,-1.4 -9.2,-2.8 -12.5,-3.1c-3.4,-0.4 -8.6,-0.1 -12,0.6c-3.3,0.6 -8.7,2.7 -12,4.5c-3.3,1.8 -7.7,5.2 -9.8,7.6c-2.1,2.4 -5.6,7.3 -7.7,10.9c-2.1,3.6 -5.4,10.5 -7.3,15.5c-1.9,5 -5.8,16.2 -8.6,25c-2.7,8.8 -7.1,23.4 -9.6,32.5c-2.6,9.1 -4.8,17.1 -5.1,17.7c-0.2,0.7 -0.8,1.3 -1.4,1.3c-0.6,0 -0.8,-0.8 -0.5,-1.8c0.2,-0.9 3.1,-11.1 6.4,-22.7c3.3,-11.6 8.3,-28 11.1,-36.5c2.9,-8.5 7.1,-19.6 9.4,-24.5c2.4,-5 6.3,-11.7 8.8,-15c2.5,-3.3 7,-7.7 9.9,-9.8c3,-2 8.1,-4.6 11.4,-5.7c3.3,-1 8.9,-1.9 12.5,-2zm-196.5,37.6c2.2,0.3 5.5,1.5 7.4,2.7c1.9,1.2 5.2,4.2 7.3,6.7c2.2,2.5 5.6,7.9 7.8,12c2.1,4.1 5.6,12 7.8,17.5c2.2,5.5 5.5,14.5 7.5,20c1.9,5.5 5.6,16.8 8.2,25c2.5,8.2 5.1,16.2 5.6,17.8c0.7,2 0.6,2.7 -0.4,2.7c-0.6,0 -2.1,-3 -3.1,-6.7c-1.1,-3.8 -4.7,-15.3 -8.2,-25.8c-3.4,-10.5 -8,-23.5 -10.2,-29c-2.2,-5.5 -5.9,-14 -8.3,-18.9c-2.6,-5.3 -6.4,-11.2 -9.4,-14.4c-2.8,-3 -6.7,-6 -9,-6.9c-3.1,-1.2 -4.8,-1.3 -7.5,-0.4c-1.9,0.5 -4.9,2.3 -6.5,3.8c-1.7,1.5 -4.4,4.8 -6.1,7.3c-1.7,2.5 -4.5,7.7 -6.2,11.5c-1.7,3.8 -4.2,10.6 -5.6,15c-1.4,4.4 -3.6,13.6 -5,20.5c-1.4,6.9 -3.6,19.5 -5,28c-1.4,8.5 -3.4,21.8 -4.5,29.5c-1.2,7.7 -3,21.2 -4.1,30c-1.2,8.8 -2.3,16.2 -2.5,16.5c-0.3,0.3 -0.7,0.3 -1,0c-0.2,-0.3 0.4,-7.5 1.5,-16c1,-8.5 2.6,-20.4 3.4,-26.5c0.9,-6.1 2.5,-17.1 3.6,-24.5c1.1,-7.4 3.4,-20.9 5.1,-30c1.7,-9.1 4.4,-21 6.1,-26.5c1.6,-5.5 5,-14.3 7.5,-19.5c2.7,-5.6 6.5,-11.5 9.2,-14.4c2.5,-2.7 5.9,-5.5 7.6,-6.2c1.8,-0.9 4.6,-1.2 7,-0.8zm199.5,-0.6c1.9,0 5.3,1 7.5,2.3c2.1,1.2 5.6,4.4 7.7,7.2c2,2.7 5.1,7.7 6.7,11c1.6,3.3 3.9,8.5 5.1,11.5c1.2,3 3,8.7 4.1,12.5c1.1,3.8 3.1,12.6 4.4,19.5c1.3,6.9 3.3,18.3 4.5,25.5c1.1,7.2 2.7,17.3 3.5,22.5c0.8,5.2 2.6,18.3 4,29c1.4,10.7 2.5,20.5 2.5,21.8c0,1.2 -0.3,2.2 -0.8,2.2c-0.4,0 -1.3,-4.6 -2,-10.2c-0.7,-5.7 -2.7,-20 -4.3,-31.8c-1.6,-11.8 -4.3,-29.4 -5.9,-39c-1.7,-9.6 -3.9,-21.6 -5,-26.5c-1,-5 -3.1,-12.8 -4.5,-17.5c-1.5,-4.7 -4.7,-12.8 -7.3,-18c-2.8,-5.6 -6.6,-11.4 -9.2,-14.1c-2.9,-3 -5.7,-4.9 -8,-5.4c-1.9,-0.4 -4.9,-0.4 -6.5,0c-1.8,0.4 -5.3,3 -8.5,6.3c-4.2,4.4 -6.8,8.6 -11.6,18.7c-3.3,7.2 -7.6,16.8 -9.5,21.5c-1.8,4.7 -3.7,9 -4.1,9.5c-0.4,0.5 -1,0.8 -1.3,0.5c-0.3,-0.3 1.3,-5.2 3.5,-11c2.3,-5.8 6.8,-15.9 10,-22.5c3.3,-6.8 7.7,-14.1 10.2,-17c2.5,-2.8 6,-5.8 7.9,-6.7c1.9,-1 5,-1.8 6.9,-1.8zm-7.2,54c2.1,0 4.3,1 6.3,2.7c1.8,1.6 4.4,5.3 5.9,8.3c1.5,3 3.7,8.4 4.9,12c1.2,3.6 3.2,12.1 4.6,19c1.3,6.9 2.9,16.6 3.4,21.5c0.6,4.9 1.5,14.4 2.1,21c0.5,6.6 1,15.5 1,19.8c0,4.2 -0.3,7.5 -0.8,7.3c-0.4,-0.2 -1.1,-6.6 -1.5,-14.2c-0.4,-7.7 -1.5,-20.4 -2.3,-28.4c-0.8,-8 -2.6,-20 -3.9,-26.8c-1.4,-6.7 -3.9,-16.1 -5.5,-21c-1.7,-4.8 -3.8,-9.8 -4.7,-11.2c-0.8,-1.4 -2.7,-3.7 -4.2,-5.3c-1.4,-1.5 -3.5,-2.7 -4.7,-2.7c-1.1,0 -3.8,1.5 -6,3.4c-2.6,2.3 -5.9,7.2 -10.1,15.2c-3.4,6.6 -9.6,19.6 -13.8,28.9c-4.2,9.3 -8.1,17.4 -8.6,18q-0.9,1 -0.9,-0.3c0,-0.6 2.3,-6.5 5.1,-13c2.8,-6.4 8.7,-19 13,-28c5.9,-12.1 9.1,-17.4 12.7,-21.2c3.8,-3.9 5.5,-5 8,-5zm-37.1,24c0.2,0.8 -2.4,10.3 -5.7,21c-3.4,10.7 -6.5,19.9 -7,20.5c-0.6,0.6 -1.1,0.8 -1.3,0.5c-0.3,-0.3 2.4,-9.5 5.9,-20.5c3.5,-11 6.7,-20.7 7,-21.5c0.6,-1.3 0.8,-1.3 1.1,0zm-123.5,185.1c4.4,-0.1 4.8,0.1 4.5,2.2c-0.2,1.9 -0.9,2.3 -6.7,2.9c-3.6,0.3 -9.7,1.8 -13.5,3.2c-3.8,1.5 -11.3,5.2 -16.5,8.3c-5.2,3.1 -12.7,8 -16.5,10.8c-3.8,2.9 -8.9,6.8 -11.3,8.8c-2.3,2.1 -4.9,3.7 -5.7,3.7c-0.8,0 -1.8,-0.6 -2.2,-1.2c-0.4,-0.8 1.3,-3 4.3,-5.7c2.7,-2.4 9.6,-7.7 15.4,-11.8c5.8,-4.1 15.4,-9.9 21.5,-12.9c6,-3 13.5,-6.1 16.5,-6.8c3,-0.8 7.6,-1.5 10.2,-1.5zm144.3,0.1c2.2,-0.1 6,0.3 8.5,0.9c2.5,0.6 7.4,2.4 11,4.2c3.6,1.7 9.4,5.3 13,8.1c3.6,2.7 10.9,8.9 16.2,13.8c5.4,4.8 9.8,9.5 9.8,10.3c0,0.8 -0.7,1.8 -1.5,2.3c-1.1,0.5 -3.7,-1.5 -9.3,-6.9c-4.2,-4.1 -11.3,-10.4 -15.7,-13.9c-4.4,-3.5 -11.4,-7.9 -15.5,-9.9c-5.9,-2.8 -9,-3.6 -14.5,-3.9c-4.6,-0.2 -8.6,0.2 -11.8,1.2c-2.6,0.9 -4.9,1.6 -5.2,1.6c-0.3,0 -0.4,-1.1 -0.3,-2.4c0.1,-1.9 1,-2.7 3.5,-3.4c1.9,-0.5 4.4,-1.1 5.6,-1.4c1.2,-0.3 4,-0.6 6.2,-0.6zm-127,4.8c0.8,0 4.5,2.3 8.2,5.2c3.8,2.9 10.6,8.3 15.3,12.1c4.7,3.7 11,8 14,9.5c4.6,2.3 6.8,2.7 13.5,2.6c6.5,0 9,-0.5 13.5,-2.7c3,-1.4 11,-6.2 17.7,-10.7c6.8,-4.4 12.7,-8 13.3,-8c0.5,0 1,1 1,2.3c0,1.7 -2.5,3.9 -11.8,9.9c-6.4,4.2 -14.2,8.8 -17.2,10.2c-3,1.4 -8.2,3 -11.5,3.6c-4.2,0.8 -7.6,0.8 -11.5,0.1c-3,-0.6 -7.9,-2.3 -10.8,-3.8c-2.9,-1.6 -12,-8.2 -20.2,-14.8c-9.1,-7.3 -15,-12.7 -15,-13.7c0,-1 0.7,-1.8 1.5,-1.8zm-18.8,13.1c1.8,-0.1 3.3,0.1 3.3,0.4c0,0.3 -0.4,1.3 -0.9,2.3c-0.5,0.9 -2.3,2 -4,2.5c-1.7,0.4 -5.7,1.9 -8.9,3.4c-3.1,1.4 -8.9,4.6 -12.7,7.1c-3.9,2.5 -10.2,7 -14,10c-3.9,3 -9.1,7.6 -11.7,10.1c-3.3,3.2 -5.2,4.4 -6.3,3.9c-0.8,-0.5 -1.5,-1.4 -1.5,-2c0,-0.7 1.7,-2.9 3.7,-4.9c2.1,-2 7.6,-6.7 12.3,-10.4c4.7,-3.7 11.9,-8.8 16,-11.4c4.1,-2.5 10.6,-6 14.5,-7.8c3.8,-1.7 8.5,-3.2 10.2,-3.2zm142.3,0c6.3,-0.1 8.5,0.4 13.5,2.8c3.3,1.5 8.7,4.9 12,7.5c3.3,2.6 10.8,9.2 16.7,14.7c6.8,6.2 10.8,10.6 10.8,11.9c0,1.3 -0.7,2 -1.8,2c-0.9,-0.1 -6,-4.2 -11.2,-9.2c-5.2,-5.1 -12.3,-11.5 -15.6,-14.2c-3.4,-2.8 -8.8,-6.4 -12,-8c-4.3,-2.1 -7.4,-3 -11.4,-3c-3,-0.1 -7.2,0.2 -9.3,0.7c-3.3,0.6 -3.7,0.5 -3.9,-1.3c-0.1,-1.4 0.7,-2.4 2.3,-3c1.3,-0.5 5.8,-0.9 9.9,-0.9zm-123.8,3.9c0.7,0 5,2.8 9.4,6.3c4.5,3.4 11.5,8.9 15.5,12.2c4.1,3.3 9.6,7.2 12.4,8.5c3.5,1.7 7.2,2.6 12,2.8c5.3,0.3 8.4,-0.1 12.5,-1.7c3,-1.1 9.1,-4.3 13.5,-7.2c4.4,-2.9 10.9,-7.4 14.5,-10.1c3.6,-2.7 6.8,-4.8 7.2,-4.8c0.5,0 1,0.9 1.3,2c0.4,1.6 -1.1,3.1 -6.8,7.3c-3.9,3 -9.9,7.2 -13.2,9.5c-3.3,2.2 -8.7,5.3 -12,6.7c-3.4,1.5 -8.8,2.9 -12.5,3.3c-5.1,0.4 -8,0 -13.5,-1.7c-5.1,-1.5 -9.3,-3.9 -15.2,-8.4c-4.5,-3.4 -11.7,-9 -16,-12.5c-4.3,-3.4 -8.4,-6.7 -9.1,-7.2c-0.6,-0.6 -1.2,-1.9 -1.2,-3c0,-1.1 0.6,-2 1.2,-2z" fill="#000"/>
   <path id="Path 2" class="s0" d="m170.8,33.1c6.2,-0.1 6.2,-0.1 5.9,2.6c-0.2,2.7 -0.4,2.8 -5.7,2.7c-3,0 -7.2,-0.3 -9.3,-0.7c-2,-0.4 -3.8,-1.1 -3.9,-1.7c-0.1,-0.5 1.3,-1.4 3.2,-1.9c1.9,-0.5 6.3,-1 9.7,-1l0.1,0zm8.6,-0.4l7.6,0.5c4.2,0.2 8.5,0.9 9.6,1.5c1.9,1.1 1.8,1.2 -1,2.3c-1.7,0.6 -6,1.5 -16.5,2.5l0.1,-3.4l0.2,-3.4zm-7,12.3c4.4,0 4.8,0.2 4.8,2.5c0,2.3 -0.4,2.5 -4.3,2.4c-2.3,0 -5.6,-0.6 -10.2,-2.7l2.5,-1c1.3,-0.6 4.6,-1.1 7.2,-1.2zm11.5,0c2.6,0 5.7,0.6 6.8,1.3c1.6,1.2 1.7,1.5 0.5,2.2c-0.9,0.4 -3.9,1.1 -6.8,1.4c-5.2,0.6 -5.2,0.6 -5.2,-2.2c0,-2.6 0.2,-2.7 4.7,-2.7zm-9.5,12c2.1,0 2.7,0.4 2.5,1.7c-0.2,1.2 -1.1,1.7 -2.8,1.5c-1.3,-0.1 -3.1,-0.5 -3.9,-0.8c-1.4,-0.5 -1.4,-0.6 0,-1.5c0.8,-0.5 2.7,-0.9 4.2,-0.9zm7,0c1.2,0 2.9,0.4 3.8,0.9c0.8,0.4 1,1 0.5,1.3c-0.6,0.3 -2.3,0.8 -3.8,1.1c-2.3,0.6 -2.7,0.3 -2.7,-1.3c0,-1.4 0.6,-2 2.2,-2zm-45.1,48c1,0 2.6,0.3 3.5,0.7c0.9,0.4 2.2,2 3,3.5c0.7,1.5 1.4,5.3 1.4,8.3c0,4.4 -0.5,5.9 -4.5,9.5l5.2,5.2c2.8,2.9 6,7.3 7.1,9.8c1.1,2.5 2.5,8.3 3.2,13c0.7,5.1 1,13.6 0.7,21.5c-0.4,10.6 -1,14.4 -3.2,20.5c-1.4,4.1 -4.4,10.9 -6.7,15c-2.2,4.1 -6.1,10.6 -8.6,14.5c-2.6,3.8 -6.7,9.7 -9.1,13c-2.5,3.3 -8.4,10 -13.1,14.8c-7.6,7.8 -9.3,10.3 -20.9,34.2l-0.1,-5.3c0,-2.9 0.5,-8.5 1.1,-12.5c0.6,-4 1.9,-8.8 2.9,-10.7c0.9,-1.9 3.7,-5.8 6.2,-8.5c2.4,-2.8 6.9,-8.4 9.9,-12.5c3,-4.1 7.6,-11.3 10.1,-16c2.5,-4.7 5.7,-11.7 7.1,-15.5c1.4,-3.9 3.5,-10.8 4.6,-15.5c1.1,-4.7 2.3,-11.7 2.6,-15.5c0.6,-5.8 1.2,-7.5 3.5,-10c1.6,-1.7 3.3,-4.3 3.9,-5.8c0.6,-1.5 1.1,-5.3 1.1,-8.5c0,-3.1 -0.7,-7.7 -1.6,-10.2c-1,-2.7 -4.2,-7.3 -8.1,-11.5c-4.5,-4.9 -6.6,-8.1 -7,-10.5c-0.3,-1.9 -0.2,-5.2 0.2,-7.3c0.5,-2.2 1.5,-4.7 2.3,-5.8c0.8,-1.1 2.3,-1.9 3.3,-1.9zm77.9,20c0.2,0 1.7,0.8 3.2,1.9c1.6,1.2 3,3.4 3.4,5.3c0.3,1.8 0.3,4.7 0,6.5c-0.5,2.4 -2.9,5.4 -8.7,11c-5.9,5.8 -8.4,8.9 -9.5,12.3c-0.8,2.5 -1.5,5.9 -1.5,7.7c0,1.8 1,5.1 2.1,7.3c1.1,2.2 3.1,4.9 4.5,6c2.1,1.7 2.5,2.8 2.4,7.7c0,3.2 0.7,8.5 1.6,11.8c0.9,3.3 3,9.4 4.8,13.5c1.8,4.1 4.9,10 6.9,13c1.9,3 8.4,10.2 14.4,16c5.9,5.8 12.6,12.3 14.8,14.5c2.3,2.2 4.9,5.8 6,8c1.3,2.9 2,7.2 2.5,15.7c0.3,7.6 0.2,11.8 -0.4,11.8c-0.6,0 -3.4,-4.8 -6.2,-10.7c-3.3,-6.9 -6.2,-11.6 -8,-12.9c-1.6,-1.1 -6.6,-5.4 -11.2,-9.5c-4.7,-4.1 -11.9,-11.5 -16.1,-16.4c-4.2,-5 -9.5,-11.5 -11.7,-14.5c-2.2,-3 -5.8,-8.7 -8.1,-12.5c-2.3,-3.9 -5.1,-10.2 -6.4,-14c-1.9,-5.8 -2.3,-9.1 -2.3,-19c0.1,-9.9 0.5,-13 2.3,-17.5c1.2,-3 3.6,-7.5 5.3,-10c1.7,-2.5 5,-6.1 11.7,-11.5l-2.4,-2.3c-1.9,-1.7 -2.4,-3.2 -2.4,-6.5c0,-2.6 0.8,-5.5 2.1,-7.5c1.1,-1.8 3,-3.7 4.2,-4.2c1.2,-0.5 2.4,-0.9 2.7,-1zm-11,19c0.2,0 1,0.5 1.7,1.2c0.9,1 0.2,2.3 -3.9,6.3c-2.8,2.7 -6.5,7.7 -11,17l0.6,-7c0.6,-7 0.6,-7 6.3,-12.3c3.2,-2.9 6,-5.2 6.3,-5.2zm-25.5,170c4.2,0 7.2,0.7 10.4,2.2c2.4,1.3 4.9,3.3 5.5,4.5c0.8,1.7 0.7,2.7 -0.7,4.7c-1,1.4 -3,3.2 -4.5,3.9c-1.5,0.8 -4.7,1.7 -7,2c-2.3,0.4 -6.4,0.2 -9,-0.4c-2.6,-0.6 -6,-1.9 -7.5,-3c-2,-1.4 -2.7,-2.8 -2.7,-4.9c0,-1.7 0.7,-3.8 1.7,-4.7c1,-0.9 3.1,-2.2 4.8,-2.9c1.6,-0.8 5.7,-1.4 9,-1.4z" fill="#fff"/>
   <path id="Path 3" class="s1" d="m137.6,109c0.8,0 2,1.2 2.7,2.6c0.9,1.9 0.9,3 0.1,4.2c-0.6,0.9 -2.2,1.7 -3.5,1.7c-1.9,0 -2.5,-0.6 -2.7,-3c-0.1,-1.7 0.3,-3.6 0.9,-4.3c0.6,-0.6 1.7,-1.2 2.5,-1.2zm74.3,21c0.4,0 1.2,0.5 1.9,1.2c0.7,0.7 1.2,2.2 1.3,3.3c0,1.1 -0.7,2.6 -1.6,3.3c-1.2,0.9 -1.8,0.9 -3,-0.1c-0.9,-0.6 -1.7,-2.1 -1.7,-3.3c-0.1,-1.1 0.4,-2.5 1.2,-3.2c0.8,-0.7 1.6,-1.2 1.9,-1.2z" fill="#000"/>
  </g>
 </g>
</svg>
