<svg width="227" height="243" xmlns="http://www.w3.org/2000/svg" focusable="false" role="presentation" class="css-duhjgb">
 <g>
  <title>Layer 1</title>
  <path fill="black" fill-rule="nonzero" d="m638.323,51.496zm-610.3,-52.707l0,76.445c2.953,-2.349 4.646,-3.615 6.252,-4.984c46.88,-39.97 121.953,-37.725 164.869,4.941c41.266,41.027 36.615,106.15 -10.124,140.884c-21.209,15.761 -45.011,23.564 -71.507,24.63c-31.651,1.273 -59.939,-6.794 -84.128,-27.464c-21.328,-18.226 -32.541,-41.942 -32.988,-69.711c-0.757,-46.95 -0.203,-93.922 -0.183,-140.884c0.001,-1.04 0.211,-2.08 0.403,-3.857l27.406,0zm55.739,69.486c-44.921,12.757 -68.285,63.382 -47.742,105c15.69,31.785 43.545,44.551 71.745,45.599c22.73,-0.082 38.552,-3.559 53.106,-12.023c46.306,-26.929 51.889,-87.465 10.748,-121.701c-25.927,-21.575 -55.834,-25.969 -87.857,-16.875z" id="svg_1" stroke="null"/>
 </g>

</svg>