<svg version="1.2" xmlns="http://www.w3.org/2000/svg" viewBox="0 0 70 37" width="70" height="37">
	<title>catalinklogowhitesmal</title>
	<style>
		.s0 { opacity: .9;fill: #000000 } 
	</style>
	<path id="Path 0" class="s0" d="m12 13l4.3-3.5c2.3-2 6.6-4.5 9.4-5.5 2.9-1.1 7.4-2 10.1-2 2.6 0 6.3 0.4 8.2 1 1.9 0.5 5.7 2.4 8.5 4.2 2.7 1.8 6.7 5.5 8.7 8.3 2.1 2.7 4.8 7.9 5.9 11.5 1.2 3.6 1.9 7.2 1.7 8-0.3 0.8-1-0.2-1.8-2.5-0.7-2.2-2.1-5.7-3.1-7.8-1.1-2-3.8-5.8-6.1-8.4-2.4-2.5-6.5-5.7-9.3-6.9-2.8-1.3-6.9-2.4-9.2-2.4-2.4 0-6.7 0.9-9.5 2-3.2 1.1-7.7 4.1-17.3 12.8l-3.6-6.1c-2-3.4-4.7-8-5.9-10.2-2.1-3.9-2.1-3.9 9 7.5z"/>
</svg>