<?xml version="1.0" encoding="UTF-8"?>
<svg width="112px" height="112px" viewBox="0 0 112 112" version="1.1" xmlns="http://www.w3.org/2000/svg" xmlns:xlink="http://www.w3.org/1999/xlink">
    <!-- Generator: Sketch 46.2 (44496) - http://www.bohemiancoding.com/sketch -->
    <title>Logo Dark</title>
    <desc>Created with Sketch.</desc>
    <defs></defs>
    <g id="Symbols" stroke="none" stroke-width="1" fill="none" fill-rule="evenodd">
        <g id="Logo-/-Dark">
            <g id="Logo-Dark">
                <ellipse id="Oval" fill="#000" cx="55.9720427" cy="55.8317741" rx="55.9720427" ry="55.8317741"></ellipse>
                <g id="Symbol" transform="translate(19.478261, 36.034783)" fill-rule="nonzero" fill="#FFFFFF">
                    <g id="little_factory2" transform="translate(0.111954, 0.255871)">
                        <path d="M28.7289843,0.442932075 C29.0814765,0.447274546 29.4322237,0.478540339 29.7803533,0.534123972 L29.8632413,0.548888375 L70.829986,11.6430341 L70.9434117,11.6751684 C71.0961001,11.7229356 71.2470436,11.7741767 71.3953695,11.8367083 C71.6649736,11.9504811 71.9232352,12.0937826 72.1588117,12.266613 C72.3943881,12.4394433 72.6072794,12.642671 72.7896331,12.8702165 C73.2372283,13.4321323 73.4841473,14.1338756 73.5068325,14.8486464 C73.5417327,19.0365258 73.50596,23.2235366 73.50596,27.411416 C73.5007249,27.7952904 73.4509921,28.1739539 73.3323314,28.5404585 C73.1264201,29.1796703 72.7276852,29.746797 72.2024369,30.1671483 C72.0497485,30.2896059 71.88659,30.3972992 71.7147064,30.4919651 L71.6623561,30.5197569 C71.560273,30.5709981 71.560273,30.5692611 71.4564449,30.6161598 L30.385872,38.8816197 L2.91678545,31.496813 L2.99007591,31.4976815 C2.92638301,31.4959445 2.86356263,31.4924705 2.79986973,31.488128 C2.73704935,31.4820486 2.67510147,31.4742321 2.61315359,31.4655472 C2.37321461,31.4264649 2.13938317,31.3621964 1.91863931,31.2605825 C1.77991096,31.196314 1.64816265,31.1198865 1.52426688,31.0321685 C1.42131125,30.959215 1.32359065,30.8775766 1.23285009,30.7898586 C0.650889007,30.2288113 0.371687288,29.4297966 0.273966686,28.6446778 C0.249536536,28.4457926 0.23557645,28.2451704 0.237321461,28.0445483 L0.237321461,8.86211547 C0.246046515,8.75789616 0.254771568,8.65454534 0.27134917,8.55119452 C0.30537688,8.32885999 0.362962234,8.10913094 0.448467761,7.90069232 C0.528738255,7.70180713 0.634311405,7.51334388 0.763442199,7.34138201 C0.861162801,7.21110787 0.972843488,7.09038717 1.09586675,6.98269388 C1.18311728,6.90539789 1.27560285,6.83504986 1.37332345,6.77164977 C2.09139537,6.30179438 2.99705595,6.22536688 3.83117108,6.32958619 C3.98385952,6.34782457 4.13480295,6.3747479 4.28487388,6.40601369 L4.33635169,6.41817261 L4.38433949,6.42946303 L13.1434209,8.74486874 L13.1434209,5.70079635 C13.1599985,5.59657704 13.159126,5.59744553 13.1783211,5.49409471 C13.2341615,5.22486149 13.3187945,4.96518171 13.4522878,4.7237403 C13.5465184,4.55177844 13.6625616,4.39197549 13.7977999,4.24954243 C13.8981381,4.14445463 14.0080737,4.04892026 14.1267345,3.96467631 C14.2078775,3.9064872 14.2925105,3.85437754 14.379761,3.80747885 C15.0734028,3.43402632 15.9014104,3.41752493 16.6631076,3.5425881 C16.7992184,3.56516895 16.9344567,3.59209227 17.0688226,3.62335807 C17.2398336,3.6633088 17.4090997,3.71107599 17.5757482,3.76579113 L17.5827282,3.76839661 L25.917772,6.0264817 C25.917772,4.84706649 25.9020669,3.66765128 25.9186445,2.48910456 C25.9273696,2.27632347 25.9605248,2.06788484 26.0311977,1.86726267 C26.080058,1.73004057 26.1446234,1.59802945 26.2240214,1.47470326 C26.2885868,1.37482642 26.3636223,1.28016054 26.4465103,1.19417961 C26.5119482,1.12556857 26.5826211,1.06216848 26.6567841,1.00397937 C27.1794148,0.596655559 27.8556065,0.469855397 28.503878,0.445537557 C28.5789134,0.443800569 28.6539489,0.442932075 28.7289843,0.442932075 L28.7289843,0.442932075 Z M28.2002461,2.46912919 C28.103398,2.48649908 28.0056774,2.50994842 27.9175543,2.55424163 L27.9175543,8.63109599 L16.9920421,5.67126754 C16.7512306,5.59657704 16.6814302,5.57833866 16.6107572,5.56096877 C16.2992728,5.49148923 15.9755733,5.43937957 15.6562364,5.47325085 C15.4101899,5.51928105 15.3098517,5.55141533 15.2461588,5.62263186 C15.2191112,5.65302916 15.1990436,5.68863743 15.1833385,5.72598268 C15.1667609,5.76680191 15.1554183,5.80935813 15.1449482,5.85191435 L15.1423307,11.3329816 C11.3800876,10.3385557 7.6509996,9.21038167 3.85560123,8.34970385 C3.66975759,8.31062161 3.48042392,8.28717226 3.29021775,8.2810928 C3.12793175,8.27501334 2.96477325,8.2819613 2.80510477,8.31322709 C2.64718129,8.34362439 2.46570018,8.39833953 2.36448955,8.53295614 C2.27811152,8.64933437 2.25106386,8.80132087 2.23710377,8.94201694 C1.71447305,15.3158963 2.10186544,21.7332005 2.23710377,28.1270552 C2.24844634,28.4275542 2.29556163,28.7358697 2.40985983,29.0163934 C2.4369075,29.0823989 2.46831769,29.147536 2.50583542,29.2083306 C2.53113808,29.2500183 2.55905825,29.2891005 2.59134095,29.3255773 C2.62362365,29.3629226 2.66026888,29.3967938 2.70214913,29.4237172 C2.79986973,29.4862487 2.91765796,29.5044871 3.03108366,29.5079611 L30.4513099,36.8380527 L70.8055558,28.7167628 C71.0969726,28.536116 71.323824,28.2581979 71.4285247,27.931644 C71.4782575,27.7779205 71.4991976,27.6189861 71.5053052,27.4583146 C71.556783,23.2617504 71.636181,19.0634491 71.5070502,14.8686218 C71.4922176,14.5950461 71.3953695,14.3240759 71.2234859,14.1086893 C71.1414704,14.006207 71.0437498,13.9176206 70.9355591,13.8429301 C70.7401179,13.7083135 70.5193741,13.6240695 70.2925227,13.5598009 L29.4287337,2.49344703 C29.1922847,2.45610178 28.9532182,2.43612641 28.7132792,2.43265243 C28.4768303,2.4369949 28.3372294,2.44567985 28.2002461,2.46912919 Z" id="Shape"></path>
                        <polygon id="Shape" points="29.4583988 4.18353687 29.4583988 8.37749567 55.2479126 15.3037374 55.2479126 13.013518 55.2479126 12.8615316 55.2479126 11.1097786"></polygon>
                        <polygon id="Shape" points="16.7486131 11.2348418 42.5389994 18.1610835 42.5389994 15.8699957 42.5389994 15.7180092 42.5389994 13.9671247 16.7486131 7.040883"></polygon>
                        <polygon id="Shape" points="3.85472873 27.8882193 8.23121567 29.071977 8.2530283 20.0109763 22.8099079 23.9478608 22.8674933 33.229459 29.6442425 35.0142147 29.6442425 25.1524624 29.6442425 18.5736183 29.6442425 18.4216318 29.6442425 16.6707474 3.85472873 9.74450564"></polygon>
                    </g>
                </g>
            </g>
        </g>
    </g>
</svg>
