<svg xmlns="http://www.w3.org/2000/svg" width="220" height="178"><defs><clipPath clipPathUnits="userSpaceOnUse" id="e"><path d="M662.466 556.249h220.963v60.412H662.466v-60.412z"/></clipPath><clipPath clipPathUnits="userSpaceOnUse" id="d"><path d="M654.16 556.249h255.607v68.791H654.16v-68.791z"/></clipPath><clipPath clipPathUnits="userSpaceOnUse" id="c"><path d="M662.466 556.249h220.963v60.412H662.466v-60.412z"/></clipPath><clipPath clipPathUnits="userSpaceOnUse" id="b"><path d="M654.16 556.249h255.607v68.791H654.16v-68.791z"/></clipPath><clipPath clipPathUnits="userSpaceOnUse" id="a"><path d="M662.466 556.249h220.963v60.412H662.466v-60.412z"/></clipPath></defs><path d="M221.655 531.233h107.452v-74.56H221.655v74.56z" style="fill:#fff;fill-opacity:1;fill-rule:nonzero;stroke:none" transform="translate(-167.013 -409.917)"/><path d="M240.01 446.353h-35.423v-4.674h35.423v4.674z" style="fill:#000;fill-opacity:1;fill-rule:nonzero;stroke:none" transform="translate(-167.013 -409.917)"/><path d="M0 0v8.076s.73 7.168 7.538 8.407c0 0 6.613-1.017 7.461-8.276l.196-8.174L0 0z" style="fill:#000;fill-opacity:1;fill-rule:nonzero;stroke:none" transform="matrix(3.00802 0 0 -3.00802 86.56 113.024)"/><path d="M0 0h-26.685v1.679h2.755l.487-.851h-.487V.307h1.851v.521h-.485l.485.851h4.466l.487-.851h-.487V.307h1.806v.521h-.485l.485.851h4.465l.486-.851h-.486V.307h1.995v.521h-.485l.485.851h4.466l.486-.851h-.486V.307h2.124v.515h-.485l.485.857H0V0z" style="fill:#fff;fill-opacity:1;fill-rule:nonzero;stroke:none" transform="matrix(3.00802 0 0 -3.00802 150.09 55.934)"/><path d="M0 0v-1.092h-26.014V.053l.489 1.751h2.597V.431h1.745v1.373h4.212V.431h1.702v1.373h4.212V.431h1.879v1.373h4.212V.431h2.003v1.373h2.598L0 0z" style="fill:#000;fill-opacity:1;fill-rule:nonzero;stroke:none" transform="matrix(3.00802 0 0 -3.00802 148.715 47.576)"/><path d="M316.738 511.732h-80.344v-6.365h80.344v6.365z" style="fill:none;stroke:#000;stroke-width:.85728592;stroke-linecap:butt;stroke-linejoin:miter;stroke-miterlimit:4;stroke-opacity:1;stroke-dasharray:none" transform="translate(-167.013 -409.917)"/><path d="M0 0h-23.682v5.475h3.521l.535.364h15.867l.421-.364H0V0z" style="fill:#000;fill-opacity:1;fill-rule:nonzero;stroke:none" transform="matrix(3.00802 0 0 -3.00802 144.476 130.549)"/><path d="M0 0c0-.267-.128-.484-.285-.484-.158 0-.285.217-.285.484s.127.483.285.483C-.128.483 0 .267 0 0" style="fill:#000;fill-opacity:1;fill-rule:nonzero;stroke:none" transform="matrix(3.00802 0 0 -3.00802 83.284 61.856)"/><path d="M0 0c-.267 0-.484.128-.484.285 0 .158.217.285.484.285C.266.57.483.443.483.285.483.128.266 0 0 0" style="fill:#000;fill-opacity:1;fill-rule:nonzero;stroke:none" transform="matrix(3.00802 0 0 -3.00802 79.124 66.044)"/><path d="M0 0c-.267 0-.484.128-.484.285 0 .158.217.285.484.285C.266.57.483.443.483.285.483.128.266 0 0 0" style="fill:#000;fill-opacity:1;fill-rule:nonzero;stroke:none" transform="matrix(3.00802 0 0 -3.00802 85.758 66.044)"/><path d="M0 0c0-.267-.128-.484-.285-.484-.158 0-.285.217-.285.484 0 .266.127.483.285.483C-.128.483 0 .266 0 0" style="fill:#000;fill-opacity:1;fill-rule:nonzero;stroke:none" transform="matrix(3.00802 0 0 -3.00802 83.284 68.674)"/><path d="M249.774 477.57h-.677v-4.707h.677v4.707z" style="fill:#000;fill-opacity:1;fill-rule:nonzero;stroke:none" transform="translate(-167.013 -409.917)"/><path d="M251.675 475.447h-4.542v-.677h4.542v.677z" style="fill:#000;fill-opacity:1;fill-rule:nonzero;stroke:none" transform="translate(-167.013 -409.917)"/><path d="M0 0c0-.267-.128-.484-.285-.484-.159 0-.285.217-.285.484s.126.483.285.483C-.128.483 0 .267 0 0" style="fill:#000;fill-opacity:1;fill-rule:nonzero;stroke:none" transform="matrix(3.00802 0 0 -3.00802 137.54 61.856)"/><path d="M0 0c-.268 0-.484.128-.484.285 0 .158.216.285.484.285C.266.57.483.443.483.285.483.128.266 0 0 0" style="fill:#000;fill-opacity:1;fill-rule:nonzero;stroke:none" transform="matrix(3.00802 0 0 -3.00802 133.381 66.044)"/><path d="M0 0c-.267 0-.484.128-.484.285 0 .158.217.285.484.285C.266.57.482.443.482.285.482.128.266 0 0 0" style="fill:#000;fill-opacity:1;fill-rule:nonzero;stroke:none" transform="matrix(3.00802 0 0 -3.00802 140.015 66.044)"/><path d="M0 0c0-.267-.128-.484-.285-.484-.159 0-.285.217-.285.484 0 .266.126.483.285.483C-.128.483 0 .266 0 0" style="fill:#000;fill-opacity:1;fill-rule:nonzero;stroke:none" transform="matrix(3.00802 0 0 -3.00802 137.54 68.674)"/><path d="M304.032 477.57h-.676v-4.707h.676v4.707z" style="fill:#000;fill-opacity:1;fill-rule:nonzero;stroke:none" transform="translate(-167.013 -409.917)"/><path d="M305.933 475.447h-4.542v-.677h4.542v.677z" style="fill:#000;fill-opacity:1;fill-rule:nonzero;stroke:none" transform="translate(-167.013 -409.917)"/><path d="M0 0v-.388h2.755v-1.371h1.851v1.371h4.466v-1.371h1.806v1.371h4.465v-1.371h1.995v1.371h4.465v-1.371h2.125v1.371h2.757V0H0z" style="fill:#000;fill-opacity:1;fill-rule:nonzero;stroke:none" transform="matrix(3.00802 0 0 -3.00802 69.822 49.763)"/><path d="M296.317 485.911h-41.875v-1.413h41.875v1.413zM296.317 477.946h-41.875v-1.414h41.875v1.414zM296.389 493.39h-42.016v-1.42h42.016v1.42z" style="fill:#fff;fill-opacity:1;fill-rule:nonzero;stroke:none" transform="translate(-167.013 -409.917)"/><path d="M0 0c0-.062-.185-.113-.413-.113-.228 0-.414.051-.414.113v6.688c0 .062.827.65.827.588V0z" style="fill:#fff;fill-opacity:1;fill-rule:nonzero;stroke:none" transform="matrix(3.00802 0 0 -3.00802 97.719 89.546)"/><path d="M0 0c0-.062-.185-.113-.413-.113-.228 0-.414.051-.414.113v6.688c0 .062.827.65.827.588V0z" style="fill:none;stroke:#000;stroke-width:.26499999;stroke-linecap:butt;stroke-linejoin:miter;stroke-miterlimit:4;stroke-opacity:1;stroke-dasharray:none" transform="matrix(3.00802 0 0 -3.00802 97.719 89.546)"/><path d="M0 0c0-.078-.184-.141-.413-.141-.228 0-.413.063-.413.141v8.752c0 .079.826-.326.826-.404V0z" style="fill:#fff;fill-opacity:1;fill-rule:nonzero;stroke:none" transform="matrix(3.00802 0 0 -3.00802 114.977 89.46)"/><path d="M0 0c0-.078-.184-.141-.413-.141-.228 0-.413.063-.413.141v8.752c0 .079.826-.326.826-.404V0z" style="fill:none;stroke:#000;stroke-width:.26300001;stroke-linecap:butt;stroke-linejoin:miter;stroke-miterlimit:4;stroke-opacity:1;stroke-dasharray:none" transform="matrix(3.00802 0 0 -3.00802 114.977 89.46)"/><path d="M0 0c0-.063-.185-.115-.414-.115-.229 0-.413.052-.413.115v6.966c0 .064.827-.255.827-.317V0z" style="fill:#fff;fill-opacity:1;fill-rule:nonzero;stroke:none" transform="matrix(3.00802 0 0 -3.00802 123.609 89.54)"/><path d="M0 0c0-.063-.185-.115-.414-.115-.229 0-.413.052-.413.115v6.966c0 .064.827-.255.827-.317V0z" style="fill:none;stroke:#000;stroke-width:.26199999;stroke-linecap:butt;stroke-linejoin:miter;stroke-miterlimit:4;stroke-opacity:1;stroke-dasharray:none" transform="matrix(3.00802 0 0 -3.00802 123.609 89.54)"/><path d="M0 0c0-.079-.185-.144-.411-.144-.23 0-.414.065-.414.144v8.339c0 .08.825.488.825.409V0z" style="fill:#fff;fill-opacity:1;fill-rule:nonzero;stroke:none" transform="matrix(3.00802 0 0 -3.00802 106.347 89.452)"/><path d="M0 0c0-.079-.185-.144-.411-.144-.23 0-.414.065-.414.144v8.339c0 .08.825.488.825.409V0z" style="fill:none;stroke:#000;stroke-width:.264;stroke-linecap:butt;stroke-linejoin:miter;stroke-miterlimit:4;stroke-opacity:1;stroke-dasharray:none" transform="matrix(3.00802 0 0 -3.00802 106.347 89.452)"/><path d="M0 0h-14.409l1.351 1.316h11.437L0 0z" style="fill:#fff;fill-opacity:1;fill-rule:nonzero;stroke:none" transform="matrix(3.00802 0 0 -3.00802 130.848 112.474)"/><path d="M0 0v17.261h-9.172V0l-2.389-2.172v-8.606c1.721-1.317 4.208-2.145 6.975-2.145 2.769 0 5.255.828 6.976 2.145v8.606L0 0z" style="fill:#fff;fill-opacity:1;fill-rule:nonzero;stroke:none" transform="matrix(3.00802 0 0 -3.00802 69.08 98.132)"/><path d="M0 0v17.261h-9.172V0l-2.389-2.172v-8.606c1.721-1.317 4.208-2.145 6.975-2.145 2.769 0 5.255.828 6.976 2.145v8.606L0 0z" style="fill:none;stroke:#000;stroke-width:.72899997;stroke-linecap:butt;stroke-linejoin:miter;stroke-miterlimit:4;stroke-opacity:1;stroke-dasharray:none" transform="matrix(3.00802 0 0 -3.00802 69.08 98.132)"/><path d="M0 0c-1.373-.509-2.98-.802-4.697-.802-1.641 0-3.178.267-4.507.733-.723-.582-2.374-1.998-2.374-1.998 1.671-1.141 4.191-1.707 6.881-1.707 2.689 0 5.358.615 7.031 1.757C2.334-2.017.663-.762 0 0z" style="fill:none;stroke:#000;stroke-width:.215;stroke-linecap:butt;stroke-linejoin:miter;stroke-miterlimit:4;stroke-opacity:1;stroke-dasharray:none" transform="matrix(3.00802 0 0 -3.00802 69.451 98.41)"/><path d="M231.683 452.69h-18.836v-22.24h18.836v22.24z" style="fill:#fff;fill-opacity:1;fill-rule:nonzero;stroke:#000;stroke-width:2.00635004;stroke-linecap:butt;stroke-linejoin:miter;stroke-miterlimit:4;stroke-opacity:1;stroke-dasharray:none" transform="translate(-167.013 -409.917)"/><path d="M225.376 466.54h-6.513v-5.884h6.513v5.884z" style="fill:#000;fill-opacity:1;fill-rule:nonzero;stroke:none" transform="translate(-167.013 -409.917)"/><path d="m0 0-1.944-.354v1.921H0V0z" style="fill:#000;fill-opacity:1;fill-rule:nonzero;stroke:none" transform="matrix(3.00802 0 0 -3.00802 66.806 55.453)"/><path d="m0 0 1.945-.354v1.921H0V0z" style="fill:#000;fill-opacity:1;fill-rule:nonzero;stroke:none" transform="matrix(3.00802 0 0 -3.00802 43.404 55.453)"/><path d="M0 0c0-.451-.202-.816-.45-.816-.25 0-.455.365-.455.816 0 .45.205.815.455.815C-.202.815 0 .45 0 0" style="fill:#000;fill-opacity:1;fill-rule:nonzero;stroke:none" transform="matrix(3.00802 0 0 -3.00802 56.684 64.986)"/><path d="M0 0c0-.451-.202-.816-.45-.816-.25 0-.455.365-.455.816 0 .451.205.816.455.816C-.202.816 0 .451 0 0" style="fill:#000;fill-opacity:1;fill-rule:nonzero;stroke:none" transform="matrix(3.00802 0 0 -3.00802 56.684 85.704)"/><path d="M221.871 496.334h1.06v-21.63h-1.06v21.63z" style="fill:#000;fill-opacity:1;fill-rule:nonzero;stroke:none" transform="translate(-167.013 -409.917)"/><path d="M0 0c.393 0 .712-.217.712-.487C.712-.756.393-.975 0-.975c-.392 0-.711.219-.711.488 0 .27.319.487.711.487" style="fill:#000;fill-opacity:1;fill-rule:nonzero;stroke:none" transform="matrix(3.00802 0 0 -3.00802 48.264 71.834)"/><path d="M0 0c.393 0 .712-.217.712-.487C.712-.756.393-.975 0-.975c-.392 0-.711.219-.711.488 0 .27.319.487.711.487" style="fill:#000;fill-opacity:1;fill-rule:nonzero;stroke:none" transform="matrix(3.00802 0 0 -3.00802 62.564 71.834)"/><path d="M228.083 483.652h-12.514v-.908h12.514v.908z" style="fill:#000;fill-opacity:1;fill-rule:nonzero;stroke:none" transform="translate(-167.013 -409.917)"/><path style="fill:#fff;fill-opacity:1;fill-rule:nonzero;stroke:none" d="M345.07 508.05v-51.922h-27.595v51.921l-7.187 6.534v25.887c5.177 3.961 12.661 6.452 20.984 6.452 8.33 0 15.81-2.49 20.987-6.452v-25.887l-7.189-6.534z" transform="translate(-167.013 -409.917)"/><path d="M0 0v17.261h-9.174V0l-2.389-2.172v-8.606c1.721-1.317 4.209-2.145 6.976-2.145 2.769 0 5.256.828 6.977 2.145v8.606L0 0z" style="fill:none;stroke:#000;stroke-width:.72899997;stroke-linecap:butt;stroke-linejoin:miter;stroke-miterlimit:4;stroke-opacity:1;stroke-dasharray:none" transform="matrix(3.00802 0 0 -3.00802 178.057 98.132)"/><path d="M334.347 466.54h-6.51v-5.884h6.51v5.884z" style="fill:#000;fill-opacity:1;fill-rule:nonzero;stroke:none" transform="translate(-167.013 -409.917)"/><path d="m0 0-1.945-.354v1.921H0V0z" style="fill:#000;fill-opacity:1;fill-rule:nonzero;stroke:none" transform="matrix(3.00802 0 0 -3.00802 175.78 55.453)"/><path d="m0 0 1.944-.354v1.921H0V0z" style="fill:#000;fill-opacity:1;fill-rule:nonzero;stroke:none" transform="matrix(3.00802 0 0 -3.00802 152.38 55.453)"/><path d="M0 0c-7.048-2.498-15.711 2.66-23.431 2.646-7.853-.014-14.317-4.529-21.099-3.811-2.337.247-4.174 2.368-4.686 1.097-2.162-5.368-.521-5.514-.521-5.514 5.592-4.698 17.929.422 24.374 1.498C-14.507-2.268-6.622-11.19 3.331-5.588c0 0-.914 4.781-2.863 6.319C.468.731.207.074 0 0" style="fill:#fff;fill-opacity:1;fill-rule:nonzero;stroke:none" transform="matrix(3.00802 0 0 -3.00802 182.744 144.589)"/><path d="M0 0c-7.048-2.498-15.711 2.66-23.431 2.646-7.853-.014-14.317-4.529-21.099-3.811-2.337.247-4.174 2.368-4.686 1.097-2.162-5.368-.521-5.514-.521-5.514 5.592-4.698 17.929.422 24.374 1.498C-14.507-2.268-6.622-11.19 3.331-5.588c0 0-.914 4.781-2.863 6.319C.468.731.207.074 0 0z" style="fill:none;stroke:#000;stroke-width:.498;stroke-linecap:butt;stroke-linejoin:miter;stroke-miterlimit:4;stroke-opacity:1;stroke-dasharray:none" transform="matrix(3.00802 0 0 -3.00802 182.744 144.589)"/><path d="m0 0-.541 3.535.466-.103L.248.88C.274.675.292.484.301.309c.09.166.188.331.294.494l1.402 2.171.44-.098L.442-.098 0 0z" style="fill:#000;fill-opacity:1;fill-rule:nonzero;stroke:none" transform="matrix(3.00802 0 0 -3.00802 41.923 161.773)"/><path d="m0 0 .08 3.334.441-.011L.441-.01 0 0z" style="fill:#000;fill-opacity:1;fill-rule:nonzero;stroke:none" transform="matrix(3.00802 0 0 -3.00802 51.465 163.029)"/><path d="m0 0 .943.104c.2.022.355.06.463.114.109.054.187.13.236.227.049.098.067.2.055.307a.495.495 0 0 1-.213.368c-.125.088-.31.119-.556.092l-1.049-.116L0 0zm-.234-1.9L-.6 1.414l1.47.163c.295.032.523.027.683-.016a.74.74 0 0 0 .404-.274.952.952 0 0 0 .193-.485.841.841 0 0 0-.163-.62c-.135-.178-.359-.306-.672-.385.123-.043.217-.088.283-.136.141-.103.279-.237.413-.401l.676-.838-.552-.061-.515.641c-.15.185-.272.326-.367.422a.987.987 0 0 1-.247.197.658.658 0 0 1-.209.066 1.283 1.283 0 0 1-.246-.011L.042-.38l.162-1.472-.438-.048z" style="fill:#000;fill-opacity:1;fill-rule:nonzero;stroke:none" transform="matrix(3.00802 0 0 -3.00802 57.667 157.352)"/><path d="m0 0-.636 2.871-1.073-.238-.085.385 2.58.572.085-.384-1.077-.239L.431.096 0 0z" style="fill:#000;fill-opacity:1;fill-rule:nonzero;stroke:none" transform="matrix(3.00802 0 0 -3.00802 71.025 160.937)"/><path d="m0 0 .425.119.517-1.856c.091-.323.126-.59.105-.8a.97.97 0 0 0-.266-.574c-.157-.172-.391-.301-.7-.387-.301-.084-.562-.101-.782-.051a.92.92 0 0 0-.535.337c-.137.173-.253.43-.348.77l-.517 1.856.425.119.517-1.854c.078-.279.161-.477.25-.595a.607.607 0 0 1 .352-.231.968.968 0 0 1 .494.022c.312.087.515.22.609.399.093.178.083.469-.029.873L0 0z" style="fill:#000;fill-opacity:1;fill-rule:nonzero;stroke:none" transform="matrix(3.00802 0 0 -3.00802 82.301 147.675)"/><path d="m0 0-.785 2.834-1.059-.293-.105.379 2.547.705.105-.379-1.063-.294L.425.118 0 0z" style="fill:#000;fill-opacity:1;fill-rule:nonzero;stroke:none" transform="matrix(3.00802 0 0 -3.00802 92.04 155.33)"/><path d="m0 0-.674 3.266 2.362.487.079-.385-1.929-.398.206-1.001 1.807.373.079-.383-1.807-.372.23-1.112 2.005.413.079-.385L0 0z" style="fill:#000;fill-opacity:1;fill-rule:nonzero;stroke:none" transform="matrix(3.00802 0 0 -3.00802 99.079 153.416)"/><path d="m0 0 .314 3.32 2.4-.227-.037-.392-1.961.186L.62 1.87l1.836-.174-.036-.389-1.837.173L.476.35 2.514.158l-.037-.392L0 0z" style="fill:#000;fill-opacity:1;fill-rule:nonzero;stroke:none" transform="matrix(3.00802 0 0 -3.00802 116.937 151.345)"/><path d="m0 0 .641 2.87-1.072.24.086.384 2.579-.577-.085-.384-1.077.241-.641-2.87L0 0z" style="fill:#000;fill-opacity:1;fill-rule:nonzero;stroke:none" transform="matrix(3.00802 0 0 -3.00802 129.931 153.185)"/><path d="m0 0 .915 3.206 2.163-.617-.108-.378-1.739.496-.283-.993 1.505-.429-.108-.378-1.505.429L.424-.121 0 0z" style="fill:#000;fill-opacity:1;fill-rule:nonzero;stroke:none" transform="matrix(3.00802 0 0 -3.00802 146.967 157.87)"/><path d="m0 0 .727 3.254.43-.096L.431-.096 0 0z" style="fill:#000;fill-opacity:1;fill-rule:nonzero;stroke:none" transform="matrix(3.00802 0 0 -3.00802 157.13 160.602)"/><path d="m0 0 .71-.056c.219-.018.392-.011.52.02a.745.745 0 0 1 .312.149c.113.096.205.23.277.401.072.172.118.383.138.634.028.348-.008.619-.107.815a.866.866 0 0 1-.387.408c-.114.055-.302.093-.564.113l-.698.055L0 0zm-.471-.357.263 3.324 1.145-.091c.259-.02.454-.052.588-.094.187-.059.344-.152.469-.277.164-.162.28-.362.348-.599.069-.238.092-.505.068-.8a2.343 2.343 0 0 0-.141-.665 1.63 1.63 0 0 0-.265-.466 1.201 1.201 0 0 0-.327-.277 1.237 1.237 0 0 0-.41-.136 2.247 2.247 0 0 0-.539-.014l-1.199.095z" style="fill:#000;fill-opacity:1;fill-rule:nonzero;stroke:none" transform="matrix(3.00802 0 0 -3.00802 164.738 160.85)"/><path d="m0 0-.633 3.274 2.367.458.075-.387-1.934-.373.193-1.003 1.811.35.075-.384-1.811-.351L.358.47l2.01.389.075-.387L0 0z" style="fill:#000;fill-opacity:1;fill-rule:nonzero;stroke:none" transform="matrix(3.00802 0 0 -3.00802 175.847 162.313)"/><path d="M0 0a8.547 8.547 0 0 1-.158.182l-.02.023c-1.123 1.257-2.825 2.513-5.396 3.228 0 0-.027.428-.072.417-.045.011-.072-.417-.072-.417-2.571-.716-4.274-1.972-5.396-3.229l-.019-.02c-.055-.062-.108-.124-.161-.186-1.348-1.556-2.408-3.773-2.424-6.916v-6.996h.555v7.067s-.149 7.125 7.517 9.163C2.02.278 1.871-6.847 1.871-6.847v-7.067h.555v6.996C2.41-3.774 1.35-1.556 0 0" style="fill:#000;fill-opacity:1;fill-rule:nonzero;stroke:none" transform="matrix(3.00802 0 0 -3.00802 126.219 70.411)"/><path d="M0 0a8.547 8.547 0 0 1-.158.182l-.02.023c-1.123 1.257-2.825 2.513-5.396 3.228 0 0-.027.428-.072.417-.045.011-.072-.417-.072-.417-2.571-.716-4.274-1.972-5.396-3.229l-.019-.02c-.055-.062-.108-.124-.161-.186-1.348-1.556-2.408-3.773-2.424-6.916v-6.996h.555v7.067s-.149 7.125 7.517 9.163C2.02.278 1.871-6.847 1.871-6.847v-7.067h.555v6.996C2.41-3.774 1.35-1.556 0 0z" style="fill:none;stroke:#fff;stroke-width:.226;stroke-linecap:butt;stroke-linejoin:miter;stroke-miterlimit:4;stroke-opacity:1;stroke-dasharray:none" transform="matrix(3.00802 0 0 -3.00802 126.219 70.411)"/><path d="M0 0h11.003l5.646-5.253v-.773H-5.39v.721L0 0z" style="fill:#fff;fill-opacity:1;fill-rule:nonzero;stroke:none" transform="matrix(3.00802 0 0 -3.00802 93.316 113.132)"/><path d="M0 0h11.003l5.646-5.253v-.773H-5.39v.721L0 0z" style="fill:none;stroke:#000;stroke-width:.26800001;stroke-linecap:butt;stroke-linejoin:round;stroke-miterlimit:4;stroke-opacity:1;stroke-dasharray:none" transform="matrix(3.00802 0 0 -3.00802 93.316 113.132)"/><path d="m0 0 21.92-.005" style="fill:#fff;fill-opacity:1;fill-rule:nonzero;stroke:#000;stroke-width:.13500001;stroke-linecap:round;stroke-linejoin:round;stroke-miterlimit:4;stroke-opacity:1;stroke-dasharray:none" transform="matrix(3.00802 0 0 -3.00802 77.267 129.004)"/><path d="m0 0-4.218-5.244v-.765" style="fill:#fff;fill-opacity:1;fill-rule:nonzero;stroke:#000;stroke-width:.089;stroke-linecap:round;stroke-linejoin:round;stroke-miterlimit:4;stroke-opacity:1;stroke-dasharray:none" transform="matrix(3.00802 0 0 -3.00802 96.53 113.192)"/><path d="M0 0v.774l3.149 5.27" style="fill:#fff;fill-opacity:1;fill-rule:nonzero;stroke:#000;stroke-width:.089;stroke-linecap:round;stroke-linejoin:round;stroke-miterlimit:4;stroke-opacity:1;stroke-dasharray:none" transform="matrix(3.00802 0 0 -3.00802 90.55 131.321)"/><path d="M0 0v.765l1.885 5.262" style="fill:#fff;fill-opacity:1;fill-rule:nonzero;stroke:#000;stroke-width:.089;stroke-linecap:round;stroke-linejoin:round;stroke-miterlimit:4;stroke-opacity:1;stroke-dasharray:none" transform="matrix(3.00802 0 0 -3.00802 97.36 131.321)"/><path d="M0 0v.748l.863 5.288" style="fill:#fff;fill-opacity:1;fill-rule:nonzero;stroke:#000;stroke-width:.089;stroke-linecap:round;stroke-linejoin:round;stroke-miterlimit:4;stroke-opacity:1;stroke-dasharray:none" transform="matrix(3.00802 0 0 -3.00802 103.685 131.268)"/><path d="M0 0v6.053" style="fill:#fff;fill-opacity:1;fill-rule:nonzero;stroke:#000;stroke-width:.089;stroke-linecap:round;stroke-linejoin:round;stroke-miterlimit:4;stroke-opacity:1;stroke-dasharray:none" transform="matrix(3.00802 0 0 -3.00802 110.098 131.321)"/><path d="M0 0v.748l-1.127 5.288" style="fill:#fff;fill-opacity:1;fill-rule:nonzero;stroke:#000;stroke-width:.089;stroke-linecap:round;stroke-linejoin:round;stroke-miterlimit:4;stroke-opacity:1;stroke-dasharray:none" transform="matrix(3.00802 0 0 -3.00802 116.86 131.268)"/><path d="M0 0v.774l-2.23 5.27" style="fill:#fff;fill-opacity:1;fill-rule:nonzero;stroke:#000;stroke-width:.089;stroke-linecap:round;stroke-linejoin:round;stroke-miterlimit:4;stroke-opacity:1;stroke-dasharray:none" transform="matrix(3.00802 0 0 -3.00802 123.392 131.294)"/><path d="M0 0v.765l-3.264 5.27" style="fill:#fff;fill-opacity:1;fill-rule:nonzero;stroke:#000;stroke-width:.089;stroke-linecap:round;stroke-linejoin:round;stroke-miterlimit:4;stroke-opacity:1;stroke-dasharray:none" transform="matrix(3.00802 0 0 -3.00802 129.995 131.294)"/><path d="M0 0v.774l-4.482 5.244" style="fill:#fff;fill-opacity:1;fill-rule:nonzero;stroke:#000;stroke-width:.089;stroke-linecap:round;stroke-linejoin:round;stroke-miterlimit:4;stroke-opacity:1;stroke-dasharray:none" transform="matrix(3.00802 0 0 -3.00802 136.84 131.268)"/><path d="M0 0c-1.373-.509-2.979-.802-4.698-.802-1.64 0-3.177.267-4.506.733-.723-.582-2.374-1.998-2.374-1.998 1.671-1.141 4.191-1.707 6.88-1.707 2.69 0 5.359.615 7.032 1.757C2.334-2.017.663-.762 0 0z" style="fill:none;stroke:#000;stroke-width:.215;stroke-linecap:butt;stroke-linejoin:miter;stroke-miterlimit:4;stroke-opacity:1;stroke-dasharray:none" transform="matrix(3.00802 0 0 -3.00802 178.666 98.41)"/><path d="M0 0s4.746-2.095 11.096-.098V1.44l1.735 2.422V6.12h-1.408V4.255H9.394v1.132h-2.52V2.651H4.353v2.75H1.735V4.288H-.393v1.82H-1.8V3.633l1.784-2.159L0 0z" style="fill:#fff;fill-opacity:1;fill-rule:nonzero;stroke:none" transform="matrix(3.00802 0 0 -3.00802 38.289 49.606)"/><path d="M0 0s4.746-2.095 11.096-.098V1.44l1.735 2.422V6.12h-1.408V4.255H9.394v1.132h-2.52V2.651H4.353v2.75H1.735V4.288H-.393v1.82H-1.8V3.633l1.784-2.159L0 0z" style="fill:none;stroke:#000;stroke-width:.59100002;stroke-linecap:butt;stroke-linejoin:miter;stroke-miterlimit:4;stroke-opacity:1;stroke-dasharray:none" transform="matrix(3.00802 0 0 -3.00802 38.289 49.606)"/><path d="M0 0s4.175-2.056 11.902-.125" style="fill:none;stroke:#000;stroke-width:.228;stroke-linecap:butt;stroke-linejoin:miter;stroke-miterlimit:4;stroke-opacity:1;stroke-dasharray:none" transform="matrix(3.00802 0 0 -3.00802 37.097 43.233)"/><path d="M235.702 427.842h-27v-6.2h27v6.2z" style="fill:#000;fill-opacity:1;fill-rule:nonzero;stroke:none" transform="translate(-167.013 -409.917)"/><path d="M225.77 425.947h-7.58v-6.567h7.58v6.567z" style="fill:#000;fill-opacity:1;fill-rule:nonzero;stroke:none" transform="translate(-167.013 -409.917)"/><path d="M0 0s3.311-1.462 7.74-.069v1.073l1.21 1.69v1.575h-.981V2.968H6.553v.79H4.795v-1.7H3.037v1.709H1.21v-.776H-.274v1.27h-.982V2.534l1.244-1.506L0 0z" style="fill:#fff;fill-opacity:1;fill-rule:nonzero;stroke:none" transform="matrix(3.00802 0 0 -3.00802 43.307 24.241)"/><g clip-path="url(#a)" transform="matrix(3.00802 0 0 -3.00802 -1982.712 1864.39)"><path d="M0 0s3.311-1.462 7.74-.069v1.073l1.21 1.69v1.575h-.981V2.968H6.553v.79H4.795v-1.7H3.037v1.709H1.21v-.776H-.274v1.27h-.982V2.534l1.244-1.506L0 0z" style="fill:none;stroke:#000;stroke-width:.412;stroke-linecap:butt;stroke-linejoin:miter;stroke-miterlimit:4;stroke-opacity:1;stroke-dasharray:none" transform="translate(673.539 611.747)"/></g><g clip-path="url(#b)" transform="matrix(3.00802 0 0 -3.00802 -1982.712 1864.39)"><path d="M0 0s2.912-1.434 8.302-.087" style="fill:none;stroke:#000;stroke-width:.15899999;stroke-linecap:butt;stroke-linejoin:miter;stroke-miterlimit:4;stroke-opacity:1;stroke-dasharray:none" transform="translate(673.262 613.23)"/><path d="M719.71 607.656h-11.776v1.554h11.776v-1.554z" style="fill:#000;fill-opacity:1;fill-rule:nonzero;stroke:none"/><path d="M716.942 605.549h-6.5v7.394h6.5v-7.394z" style="fill:#fff;fill-opacity:1;fill-rule:nonzero;stroke:#000;stroke-width:.68000001;stroke-linecap:butt;stroke-linejoin:miter;stroke-miterlimit:4;stroke-opacity:1;stroke-dasharray:none"/><path d="M0 0s4.747-2.095 11.096-.098V1.44l1.735 2.422v2.259h-1.407V4.255h-2.03v1.132h-2.52V2.651H4.353v2.75H1.735V4.288H-.392v1.82H-1.8V3.633l1.784-2.159L0 0z" style="fill:#fff;fill-opacity:1;fill-rule:nonzero;stroke:none" transform="translate(708.17 603.278)"/><path d="M0 0s4.747-2.095 11.096-.098V1.44l1.735 2.422v2.259h-1.407V4.255h-2.03v1.132h-2.52V2.651H4.353v2.75H1.735V4.288H-.392v1.82H-1.8V3.633l1.784-2.159L0 0z" style="fill:none;stroke:#000;stroke-width:.59100002;stroke-linecap:butt;stroke-linejoin:miter;stroke-miterlimit:4;stroke-opacity:1;stroke-dasharray:none" transform="translate(708.17 603.278)"/><path d="M718.278 613.811h-8.976v2.036h8.976v-2.036z" style="fill:#000;fill-opacity:1;fill-rule:nonzero;stroke:none"/><path d="M714.976 614.441h-2.52v2.183h2.52v-2.183z" style="fill:#000;fill-opacity:1;fill-rule:nonzero;stroke:none"/><path d="M0 0s3.311-1.461 7.74-.069v1.073l1.21 1.69v1.575h-.981V2.968H6.553v.79H4.795v-1.7H3.036v1.709H1.21v-.776H-.274v1.27h-.982V2.534l1.244-1.506L0 0z" style="fill:#fff;fill-opacity:1;fill-rule:nonzero;stroke:none" transform="translate(709.84 611.71)"/></g><g clip-path="url(#c)" transform="matrix(3.00802 0 0 -3.00802 -1982.712 1864.39)"><path d="M0 0s3.311-1.461 7.74-.069v1.073l1.21 1.69v1.575h-.981V2.968H6.553v.79H4.795v-1.7H3.036v1.709H1.21v-.776H-.274v1.27h-.982V2.534l1.244-1.506L0 0z" style="fill:none;stroke:#000;stroke-width:.412;stroke-linecap:butt;stroke-linejoin:miter;stroke-miterlimit:4;stroke-opacity:1;stroke-dasharray:none" transform="translate(709.84 611.71)"/></g><g clip-path="url(#d)" transform="matrix(3.00802 0 0 -3.00802 -1982.712 1864.39)"><path style="fill:none;stroke:#000;stroke-width:.15899999;stroke-linecap:butt;stroke-linejoin:miter;stroke-miterlimit:4;stroke-opacity:1;stroke-dasharray:none" d="M0 0s2.912-1.434 8.302-.087" transform="translate(709.563 613.193)"/><path style="fill:none;stroke:#000;stroke-width:.228;stroke-linecap:butt;stroke-linejoin:miter;stroke-miterlimit:4;stroke-opacity:1;stroke-dasharray:none" d="M0 0s4.175-2.056 11.902-.125" transform="translate(707.843 605.433)"/><path style="fill:#fff;fill-opacity:1;fill-rule:nonzero;stroke:none" d="M0 0s3.092 1.822 5.963.055L4.086-2.816 7.62-5.743s-3.597 1.016-4.701-.42c0 0-.159 2.574-2.919 6.163" transform="translate(721.086 573.147)"/><path style="fill:none;stroke:#000;stroke-width:.498;stroke-linecap:butt;stroke-linejoin:miter;stroke-miterlimit:4;stroke-opacity:1;stroke-dasharray:none" d="M0 0s3.092 1.822 5.963.055L4.086-2.816 7.62-5.743s-3.597 1.016-4.701-.42c0 0-.159 2.574-2.919 6.163z" transform="translate(721.086 573.147)"/><path style="fill:#fff;fill-opacity:1;fill-rule:nonzero;stroke:none" d="M0 0s-.36 1.58 1.075 4.928l.429.6S-.837 8.31-3.646 7.891l1.315-3.109-3.707-3.586S-2.511 2.929 0 0" transform="translate(668.677 567.156)"/></g><g clip-path="url(#e)" transform="matrix(3.00802 0 0 -3.00802 -1982.712 1864.39)"><path d="M0 0s-.36 1.58 1.075 4.928l.429.6S-.837 8.31-3.646 7.891l1.315-3.109-3.707-3.586S-2.511 2.929 0 0z" style="fill:none;stroke:#000;stroke-width:.498;stroke-linecap:butt;stroke-linejoin:miter;stroke-miterlimit:4;stroke-opacity:1;stroke-dasharray:none" transform="translate(668.677 567.156)"/></g><path d="M0 0c0-.451-.202-.816-.45-.816-.25 0-.454.365-.454.816 0 .45.204.815.454.815C-.202.815 0 .45 0 0" style="fill:#000;fill-opacity:1;fill-rule:nonzero;stroke:none" transform="matrix(3.00802 0 0 -3.00802 165.62 64.986)"/><path d="M0 0c0-.451-.202-.816-.45-.816-.25 0-.454.365-.454.816 0 .451.204.816.454.816C-.202.816 0 .451 0 0" style="fill:#000;fill-opacity:1;fill-rule:nonzero;stroke:none" transform="matrix(3.00802 0 0 -3.00802 165.62 85.704)"/><path d="M330.807 496.334h1.059v-21.63h-1.06v21.63z" style="fill:#000;fill-opacity:1;fill-rule:nonzero;stroke:none" transform="translate(-167.013 -409.917)"/><path d="M0 0c.393 0 .712-.217.712-.487C.712-.756.393-.975 0-.975c-.392 0-.711.219-.711.488 0 .27.319.487.711.487" style="fill:#000;fill-opacity:1;fill-rule:nonzero;stroke:none" transform="matrix(3.00802 0 0 -3.00802 157.201 71.834)"/><path d="M0 0c.393 0 .712-.217.712-.487C.712-.756.393-.975 0-.975c-.392 0-.711.219-.711.488 0 .27.319.487.711.487" style="fill:#000;fill-opacity:1;fill-rule:nonzero;stroke:none" transform="matrix(3.00802 0 0 -3.00802 171.5 71.834)"/><path d="M337.018 483.652h-12.513v-.908h12.513v.908zM313.354 542.441h-72.523v-1.36h72.523v1.36z" style="fill:#000;fill-opacity:1;fill-rule:nonzero;stroke:none" transform="translate(-167.013 -409.917)"/></svg>
