<svg width="117" height="84" xmlns="http://www.w3.org/2000/svg" data-name="Layer 1">
 <g>
  <title>Layer 1</title>
  <path id="svg_1" fill="#000" d="m92.54109,79.04696s-7.9,-0.7 -4.4,-4.4s11.4,-13.5 15.8,-13.5s5.3,3.7 5.3,6.5s-4.2,7.7 -10.5,8.4m-30.5,-17.5a13,13 0 0 1 -4.3,2.4a11.7,11.7 0 0 1 -3.3,0.4c-0.6,-0.1 -1.8,0.2 -1,-0.7a5.7,5.7 0 0 1 1.6,-1.2c0.8,-0.6 4,-2.9 6.4,-2.6s1,1.3 0.5,1.7m-9.9,-27.1c2.8,-5.1 3.9,-4.9 6,-7.4s14.9,-18.2 25.3,-18.6c5.8,-0.2 5.1,5.6 3.5,8.4s-10.5,12.5 -16.5,15.6s-10.9,4.6 -13.7,4.9s-7.4,2.3 -4.7,-2.8m46.7,25.3c-4.4,-2.6 -3.5,-2.1 -5.3,-0.2s-3.5,4.2 -5.6,5.1s-11.2,3.5 -16.5,3.3s-8.1,-1.2 -4.4,-4s3.9,-9.5 -2.1,-9.3s-14.2,4.3 -16.4,8.7c-1.2,2.4 -0.7,3.9 -4.6,5.8s-10.1,4.1 -12.9,3.4s-5.6,-0.5 -4.6,-4.9s1.8,-4.9 3.7,-10.5c2.8,-2.1 10.2,-10.2 12.8,-13c5.1,-1.4 23,-4.6 31.6,-10c10.9,-6.8 25.2,-21 16,-29.5c-6.5,-6 -22.3,5.1 -25.6,8.6s-21.8,22.1 -24.2,24.4c-3.5,-1.6 -10,-2.3 -13,-7.2s-4.4,-6.7 -7,-5.1s-0.8,3.5 0.2,6.3a16.2,16.2 0 0 0 10.7,10c7,2.1 3.3,3 1.9,4.4s-16.3,15.1 -23,20.4s-19.3,11.2 -16,16.7c1.4,2.4 6,-1.9 7.4,-2.3s3,-0.2 4.2,-1.4s4.4,-5.8 7.7,-6s4.5,3.9 7.9,4.4s23.2,-1.9 26.7,-4.6c2.1,0.5 6.5,1.4 9.1,1.2s13.9,-1.4 16.7,-2.3s4.2,0.5 3.3,1.9s-5.3,7.4 -1.4,11.2s16.7,0 21.4,-2.6s10.9,-8.4 10.9,-11.6s-5.1,-8.6 -9.5,-11.2m81.3,-28.1"/>
 </g>

</svg>