<svg version="1.2" xmlns="http://www.w3.org/2000/svg" viewBox="0 0 428 428" width="428" height="428"><style>.a{fill:#000}.b{fill:#000}.c{fill:#fff}</style><path class="a" d="m215.5 0.5c91.9 0.1 128.8 0.5 133.5 1.3 3.6 0.7 10.1 2.4 14.5 3.8 4.4 1.4 11.5 4.5 15.9 6.7 4.3 2.3 10.8 6.7 14.5 9.8 3.6 3 9.1 8.4 12.1 12 3 3.6 7.2 9.7 9.2 13.5 2 3.8 4.8 9.9 6.2 13.6 1.4 3.8 3.5 12.1 4.6 18.5 1.9 11.3 2 16.5 2 133.3 0 104.6-0.2 123-1.5 132-0.9 5.8-2.4 13.4-3.5 17-1 3.6-3.9 10.5-6.4 15.5-2.5 4.9-7.1 12.1-10.4 16-3.2 3.8-8.8 9.5-12.4 12.5-3.7 3-10.1 7.4-14.5 9.6-4.3 2.3-11.2 5.3-15.3 6.7-4.1 1.4-11.1 3.1-15.5 3.8-6.4 1.1-32.7 1.4-134.5 1.4-101.8 0-128.1-0.3-134.5-1.4-4.4-0.7-11.4-2.4-15.5-3.8-4.1-1.4-11-4.4-15.3-6.7-4.4-2.2-10.8-6.6-14.5-9.6-3.6-3-9.2-8.7-12.4-12.5-3.2-3.9-7.4-9.9-9.3-13.5-1.8-3.6-4.5-9.5-5.9-13.3-1.4-3.7-3.5-12-4.6-18.5-1.9-11.2-2-16.4-2-133.5 0-105.8 0.2-123.1 1.6-132.5 0.9-5.9 2.7-14 4-18 1.3-3.9 3.9-10.2 5.8-14 1.8-3.7 5.6-9.6 8.2-13.1 2.7-3.6 7.8-9.1 11.4-12.4 3.6-3.2 9.4-7.7 13-9.8 3.6-2.1 9.6-5.2 13.5-6.8 3.8-1.5 10.1-3.5 14-4.4 3.8-0.9 9.2-2 12-2.5 3-0.6 55.9-0.9 132-0.7z"/><path class="b" d="m171.2 90.2c3.1 0.2 5.6 0.7 5.5 1.3-0.1 0.5 0.4 0.9 1 0.7 0.7-0.1 2 1.5 2.9 3.5 1.3 2.9 1.5 5.3 1 9.8-0.4 3.6-2.5 10.5-5.2 17-2.5 6-5.4 13.2-6.5 16-1 2.7-2.8 7.5-3.9 10.5-1.2 3-2.8 7.7-3.7 10.5-0.8 2.7-2.1 6.8-2.8 9-0.7 2.2-1.8 6.2-2.4 9-0.6 2.7-1.5 7.8-2.1 11.2q-1 6.3 0 8.8c0.5 1.4 1.8 2.9 2.7 3.4 1 0.5 9.4 1.4 18.8 2 9.3 0.6 21.5 1.6 27 2.2 5.5 0.6 14.5 1.7 20 2.5 5.5 0.8 12.9 1.9 16.5 2.5 3.6 0.6 9.6 1.7 13.5 2.5 3.8 0.8 13.1 2.7 20.5 4.4 7.4 1.6 17.8 4 23 5.4 5.2 1.3 14 3.6 19.5 5.1 5.5 1.5 21.5 6.5 35.5 11.2 14 4.6 28.2 9.7 31.5 11.3 3.3 1.7 7.5 4.4 9.2 6.2 1.8 1.8 4.2 5.7 5.3 8.5 1.1 2.9 1.7 5.2 1.2 5.2-0.4-0.1-1.2-0.1-1.7 0-0.6 0.1-0.4 0.5 0.3 0.9 1.1 0.5 0.4 1.7-2.5 4.8-3.1 3.4-4.9 4.4-9.8 5.5-4.9 1-9.2 1.1-23 0.1-9.4-0.7-29.8-1.7-45.5-2.2-18.8-0.7-38.2-0.7-57 0-15.7 0.5-35.3 1.5-43.5 2-8.3 0.6-21.3 1.8-29 2.6-7.7 0.8-19.2 2.1-25.5 2.9-6.3 0.8-18.9 2.6-28 4-9.1 1.4-22.6 3.6-30 5-7.4 1.3-19.4 3.5-26.5 4.9-7.2 1.3-15.5 2.7-18.5 3.1-3.9 0.5-7.2 0.3-11.3-0.9-3.8-1.1-6.7-2.7-8.7-4.9-1.7-1.7-3.5-5-4.1-7.2-0.6-2.3-0.8-6.4-0.4-9.5 0.3-3 1.3-7.3 2-9.5 0.7-2.2 3.2-8.5 5.5-14 2.3-5.5 7.2-15.9 10.9-23 3.7-7.2 8-14.9 9.4-17.3 1.5-2.3 2.7-4.5 2.7-5 0.1-0.4 2.1-3.9 4.7-7.7 2.5-3.9 7.1-10.8 10.2-15.5 3-4.7 8.9-13.2 13-19 4.1-5.8 9.5-13 11.9-16 2.4-3 4.9-6.2 5.5-7 0.7-0.8 2.8-3.5 4.7-6 1.9-2.5 3.7-4.7 4.1-5 0.3-0.3 2.8-3.2 5.5-6.5 2.6-3.3 6-7.4 7.5-9 1.4-1.7 6-6.8 10.1-11.5 4.2-4.7 9.3-9.8 11.4-11.5 2.2-1.6 5.7-4 7.9-5.2 3.1-1.8 5.3-2.3 9.7-2.1z"/><path class="c" d="m174.9 94c0.4 0-2.3 6.2-6 13.7-3.6 7.6-9.2 20.1-12.2 27.8-3.1 7.7-7.1 19.2-9.1 25.5-1.9 6.3-4.2 15.1-5.1 19.5-0.9 4.4-1.9 11.8-2.2 16.5-0.4 5-0.1 10 0.5 12 0.6 1.9 1.7 4.1 2.4 4.8 0.9 0.8 8 1.5 22.3 2.2 11.5 0.5 27.5 1.6 35.5 2.5 8 0.9 20.6 2.5 28 3.6 7.4 1.1 21.1 3.6 30.5 5.5 9.3 1.9 25.5 5.7 36 8.4 10.4 2.6 26.4 7.1 35.5 9.9 9.1 2.7 22.3 7.1 29.5 9.6 7.1 2.6 17.7 6.5 23.5 8.7 5.8 2.2 10.9 4.5 11.5 5.1q1 1-7 0.3c-4.4-0.4-16.3-1.4-26.5-2.2-10.2-0.8-36.3-1.8-58-2.1-24.6-0.3-48-0.1-62 0.6-12.4 0.6-30.6 1.9-40.5 2.7-9.9 0.8-26.8 2.6-37.5 4-10.7 1.3-26.9 3.6-36 5-9.1 1.4-28.2 4.8-42.5 7.6-14.3 2.7-29.2 5.5-33.2 6.2-3.9 0.6-7.5 0.9-7.8 0.6-0.4-0.3 0.3-3.7 1.5-7.5 1.3-3.9 4.2-11.7 6.5-17.5 2.3-5.8 6.8-15.7 10-22 3.2-6.3 7.8-15.1 10.3-19.5 2.5-4.4 8.2-13.6 12.5-20.5 4.4-6.9 11.8-17.9 16.5-24.5 4.7-6.6 13-17.6 18.3-24.5 5.4-6.9 14.8-18.4 20.9-25.5 6.2-7.2 16.1-18.3 22.2-24.8 6-6.4 11.3-11.7 11.7-11.7z"/></svg>
