<svg width="141" height="70" viewBox="0 0 141 70" fill="none" xmlns="http://www.w3.org/2000/svg">
<g filter="url(#filter0_di_116_20)">
<path d="M129.34 12.7801C117.767 0.891232 98.6273 -1.56845 83.9385 6.76731C80.8227 8.54385 77.8553 11.0035 75.1847 14.0099L70.1401 19.7494L57.2318 34.6445L49.3681 43.527C48.1812 44.8935 46.8458 45.9868 45.6589 46.67C39.279 50.223 31.1185 49.1297 26.0739 44.0736C20.8809 38.7442 20.8809 30.545 26.0739 25.2155C29.0413 22.2091 33.1957 20.5692 37.4985 20.5692C40.3176 20.5692 43.1366 21.3892 45.6589 22.6191C46.9942 23.3023 48.1812 24.3956 49.3681 25.7621L50.8167 27.3984C51.1694 27.7968 51.7913 27.7968 52.144 27.3984L63.9931 14.014C64.295 13.673 64.29 13.1579 63.9744 12.8297C61.6022 10.3625 59.0318 8.30122 56.3415 6.76731C41.6529 -1.56845 22.513 0.891232 10.9401 12.7801C-1.07791 25.2155 -1.07791 44.4836 10.9401 56.7823C17.9136 64.0249 27.706 67.7145 37.4985 67.7145C44.0268 67.7145 50.4066 66.0747 56.3415 62.6583C59.4573 60.8819 62.4248 58.4222 65.0954 55.4157L70.1401 49.6763L83.1967 34.7812L91.0604 25.8987C92.2473 24.5322 93.5826 23.439 94.7697 22.7557C101.15 19.2027 109.31 20.296 114.355 25.3522C119.548 30.6815 119.548 38.8808 114.355 44.2103C109.31 49.2664 101.15 50.3596 94.7697 46.8066C93.4344 46.1233 92.2473 45.0302 91.0604 43.6637L89.5325 41.9377C89.1798 41.5393 88.5579 41.5393 88.2052 41.9377L76.2175 55.4785C75.9162 55.8188 75.9205 56.3328 76.2347 56.6613C78.6263 59.1609 81.2219 61.2461 83.9385 62.795C98.6273 71.1309 117.767 68.6711 129.34 56.7823C141.358 44.3469 141.358 25.0788 129.34 12.7801Z" fill="black"/>
</g>
<defs>
<filter id="filter0_di_116_20" x="0.212319" y="0.715419" width="139.856" height="69.2848" filterUnits="userSpaceOnUse" color-interpolation-filters="sRGB">
<feFlood flood-opacity="0" result="BackgroundImageFix"/>
<feColorMatrix in="SourceAlpha" type="matrix" values="0 0 0 0 0 0 0 0 0 0 0 0 0 0 0 0 0 0 127 0" result="hardAlpha"/>
<feOffset dy="0.571429"/>
<feGaussianBlur stdDeviation="0.857143"/>
<feColorMatrix type="matrix" values="0 0 0 0 0.120833 0 0 0 0 0.120833 0 0 0 0 0.120833 0 0 0 0.1 0"/>
<feBlend mode="normal" in2="BackgroundImageFix" result="effect1_dropShadow_116_20"/>
<feBlend mode="normal" in="SourceGraphic" in2="effect1_dropShadow_116_20" result="shape"/>
<feColorMatrix in="SourceAlpha" type="matrix" values="0 0 0 0 0 0 0 0 0 0 0 0 0 0 0 0 0 0 127 0" result="hardAlpha"/>
<feOffset dx="0.571429" dy="0.571429"/>
<feGaussianBlur stdDeviation="1.42857"/>
<feComposite in2="hardAlpha" operator="arithmetic" k2="-1" k3="1"/>
<feColorMatrix type="matrix" values="0 0 0 0 1 0 0 0 0 1 0 0 0 0 1 0 0 0 1 0"/>
<feBlend mode="normal" in2="shape" result="effect2_innerShadow_116_20"/>
</filter>
</defs>
</svg>
