<svg width="49" height="34" xmlns="http://www.w3.org/2000/svg" role="presentation" focusable="false" aria-hidden="true">

 <g>
  <title>Layer 1</title>
  <path id="svg_1" d="m27.413,30.338c-0.272,0 -0.372,-0.102 -0.372,-0.376l0,-25.925c0,-0.305 0.07,-0.374 0.372,-0.374l8.372,0c1.53,0 3.678,0.326 5.223,1.884c1.095,1.104 1.698,2.658 1.698,4.378c0,3.621 -4.731,6.485 -4.731,6.485s5.26,1.352 6.613,3.68c0.569,0.852 0.858,1.916 0.858,3.163c0,1.994 -0.69,3.763 -1.94,4.981c-1.414,1.376 -3.554,2.104 -6.188,2.104l-9.905,0zm16.585,-14.914c1.323,-1.5 1.966,-3.3 1.966,-5.499c0,-2.582 -0.938,-4.948 -2.64,-6.664c-1.849,-1.864 -4.455,-2.85 -7.539,-2.85l-8.372,0c-2.104,0 -3.63,1.525 -3.63,3.626l0,25.925c0,2.067 1.56,3.626 3.63,3.626l9.905,0c3.502,0 6.429,-1.047 8.463,-3.028c1.885,-1.834 2.923,-4.43 2.923,-7.307c0,-1.9 -0.473,-3.57 -1.405,-4.965c-0.79,-1.183 -1.9,-2.146 -3.301,-2.864zm-25.283,2.348a18.254,18.254 0 0 0 -2.975,-1.873a44.76,44.76 0 0 0 -3.27,-1.498a41.894,41.894 0 0 1 -2.986,-1.35c-0.901,-0.454 -1.636,-1.003 -2.203,-1.646c-0.568,-0.642 -0.852,-1.38 -0.852,-2.213c0,-1.12 0.455,-2.019 1.366,-2.7c0.91,-0.681 2.132,-1.021 3.665,-1.021c0.79,0 1.574,0.107 2.356,0.323c0.782,0.215 1.392,0.434 1.833,0.658c0.44,0.222 0.956,0.511 1.548,0.864c0.44,0.247 0.842,0.37 1.206,0.37c0.607,0 1.085,-0.34 1.434,-1.017l0.843,-1.515c0.227,-0.392 0.342,-0.76 0.342,-1.108c0,-0.587 -0.31,-1.1 -0.93,-1.537c-0.86,-0.633 -2.054,-1.21 -3.58,-1.73c-1.526,-0.519 -3.164,-0.779 -4.917,-0.779c-2.085,0 -3.965,0.387 -5.642,1.16c-1.676,0.775 -3.006,1.89 -3.988,3.347c-0.982,1.457 -1.473,3.125 -1.473,5.003c0,1.09 0.172,2.092 0.517,3.008c0.345,0.915 0.813,1.695 1.405,2.337a12.56,12.56 0 0 0 2.033,1.77c0.764,0.538 1.565,1.01 2.404,1.42c0.839,0.407 1.683,0.793 2.53,1.157c0.849,0.363 1.659,0.734 2.431,1.111c0.772,0.379 1.457,0.772 2.056,1.18a4.95,4.95 0 0 1 1.42,1.441c0.348,0.553 0.522,1.162 0.522,1.828c0,1.12 -0.443,2.027 -1.329,2.723c-0.886,0.696 -2.086,1.044 -3.6,1.044c-2.156,0 -4.379,-0.819 -6.67,-2.457c-0.478,-0.291 -0.904,-0.436 -1.277,-0.436a0.834,0.834 0 0 0 -0.204,0.022c-0.423,0.06 -0.815,0.34 -1.178,0.836l-1.042,1.47c-0.302,0.392 -0.469,0.76 -0.499,1.108a0.58,0.58 0 0 0 0,0.226c0,0.256 0.053,0.474 0.159,0.655c0.136,0.242 0.348,0.475 0.635,0.701c1.087,0.829 2.519,1.594 4.296,2.294c1.776,0.702 3.703,1.052 5.779,1.052c1.671,0 3.2,-0.256 4.585,-0.766c1.386,-0.511 2.534,-1.21 3.445,-2.097a9.209,9.209 0 0 0 2.101,-3.088a9.666,9.666 0 0 0 0.734,-3.764c0,-1.422 -0.281,-2.689 -0.845,-3.801c-0.563,-1.112 -1.292,-2.017 -2.186,-2.712" fill="black"/>
 </g>
</svg>