<svg width="550" height="549" xmlns="http://www.w3.org/2000/svg" version="1.2">

 <g>
  <title>Layer 1</title>
  <path id="svg_1" fill="#000" d="m1,0l549,0l0,549l-497.5,0l-2.2,-9.7c-1.3,-5.4 -3.2,-15.2 -4.3,-21.8c-1.1,-6.6 -2.4,-17 -3,-23c-0.5,-6.1 -1,-16.4 -1,-23c0,-6.6 0.5,-16.3 1,-21.5c0.6,-5.2 2.2,-14.2 3.6,-20c1.4,-5.8 3.9,-13.9 5.7,-18c1.7,-4.1 5.2,-10.7 7.7,-14.5c2.5,-3.9 7.3,-9.7 10.6,-13c3.2,-3.4 9,-8.4 12.9,-11.3c3.8,-2.9 11.3,-7.4 16.5,-10.1c5.2,-2.7 13.8,-6.2 19,-7.9c5.2,-1.7 14.9,-4.2 21.5,-5.6c6.6,-1.3 17.2,-3.2 23.5,-4c6.3,-0.9 18.7,-2 27.5,-2.6c8.8,-0.5 37.6,-1 112,-1l0.7,11.2c0.4,6.2 1.5,23 2.3,37.3c0.8,14.3 1.8,27.6 2.1,29.5c0.3,1.9 1.6,5.3 2.8,7.5c1.3,2.2 4.2,5.2 6.5,6.7c2.2,1.6 6,3.1 8.3,3.5c2.9,0.4 5.7,0.1 8.8,-1c2.8,-1 6.1,-3.4 8.9,-6.4c2.4,-2.6 10.5,-11.1 18,-18.8c7.5,-7.7 20.2,-20.8 28.1,-29c8,-8.3 21.7,-22.4 30.5,-31.5c8.8,-9.1 28.4,-29.3 43.6,-45c15.2,-15.7 28.8,-29.9 30.1,-31.5c1.4,-1.7 3,-4.6 3.7,-6.5c0.6,-1.9 1.1,-4.9 1.1,-6.5c-0.1,-1.7 -0.6,-4.6 -1.3,-6.6c-0.9,-2.6 -21.4,-23.6 -82.7,-84.6c-44.8,-44.6 -84.7,-84.1 -88.5,-87.8c-3.9,-3.8 -8.8,-7.6 -11,-8.6c-2.2,-1 -5.7,-1.9 -7.8,-1.9c-2,0 -5.2,0.6 -7,1.3c-1.7,0.8 -4.5,2.7 -6.1,4.3c-1.6,1.6 -3.8,4.9 -4.9,7.4c-1.9,4.3 -1.9,5.4 -0.8,24.5c0.7,11 1.9,29.4 2.7,41c0.8,11.5 1.4,22.9 1.4,29.5l-37.8,0c-20.7,0 -46.3,0.5 -56.7,1c-10.5,0.6 -25.5,1.7 -33.5,2.5c-8,0.9 -20.1,2.5 -27,3.5c-6.9,1.1 -16.8,2.9 -22,4.1c-5.2,1.1 -12.7,3 -16.5,4.1c-3.9,1.1 -10.6,3.1 -15,4.5c-4.4,1.4 -11.8,4.1 -16.5,6.1c-4.7,1.9 -11.9,5.1 -16,7.2c-4.1,2.1 -11.6,6.3 -16.5,9.5c-5,3.2 -11.5,7.8 -14.5,10.3c-3,2.5 -8.8,7.7 -20,18.7l0,-251.5zm0,494.5l6.1,11.5c3.4,6.3 9.6,17.6 13.9,25c4.2,7.4 8.2,14.5 10,18l-30,0l0,-27.3l0,-27.2z" class="a" fill-rule="evenodd"/>
  <path id="svg_2" fill="#fff" d="m307.5,72.1c2.2,0 5.8,0.8 8,1.8c2.2,1 7.1,4.8 11,8.6c3.8,3.7 43.7,43.2 88.5,87.8c61.3,61 81.8,82 82.7,84.6c0.7,2 1.2,4.9 1.3,6.6c0,1.6 -0.5,4.6 -1.1,6.5c-0.7,1.9 -2.3,4.8 -3.7,6.5c-1.3,1.6 -14.9,15.8 -30.1,31.5c-15.2,15.7 -34.8,35.9 -43.6,45c-8.8,9.1 -22.5,23.2 -30.5,31.5c-7.9,8.2 -20.6,21.3 -28.1,29c-7.5,7.7 -15.6,16.2 -18,18.8c-2.8,3 -6.1,5.4 -8.9,6.4c-3.1,1.1 -5.9,1.4 -8.8,1c-2.3,-0.4 -6.1,-1.9 -8.3,-3.5c-2.3,-1.5 -5.2,-4.5 -6.5,-6.7c-1.2,-2.2 -2.5,-5.6 -2.8,-7.5c-0.3,-1.9 -1.3,-15.2 -2.1,-29.5c-0.8,-14.3 -1.9,-31.1 -3,-48.5l-48,0c-26.4,0 -55.2,0.5 -64,1c-8.8,0.6 -21.2,1.7 -27.5,2.6c-6.3,0.8 -16.9,2.7 -23.5,4c-6.6,1.4 -16.3,3.9 -21.5,5.6c-5.2,1.7 -13.8,5.2 -19,7.9c-5.2,2.7 -12.7,7.2 -16.5,10.1c-3.9,2.9 -9.7,7.9 -12.9,11.3c-3.3,3.3 -8.1,9.1 -10.6,13c-2.5,3.8 -6,10.4 -7.7,14.5c-1.8,4.1 -4.3,12.2 -5.7,18c-1.4,5.8 -3,14.8 -3.6,20c-0.5,5.2 -1,14.9 -1,21.5c0,6.6 0.5,16.9 1,23c0.6,6 2.2,17.7 3.6,26c1.4,8.2 3.1,17.5 3.9,20.5c0.8,3 1.5,6.1 1.5,6.7c0,1 -2.7,1.3 -20.5,1.4l-32.1,0.2c-5,-8.7 -2.9,6 1.7,-54.8l-0.1,-243l7.2,-7.1c4,-3.9 9.8,-9.1 12.8,-11.6c3,-2.5 9.5,-7.1 14.5,-10.3c4.9,-3.2 12.4,-7.4 16.5,-9.5c4.1,-2.1 11.3,-5.3 16,-7.2c4.7,-2 12.1,-4.7 16.5,-6.1c4.4,-1.4 11.1,-3.4 15,-4.5c3.8,-1.1 11.3,-3 16.5,-4.1c5.2,-1.2 15.1,-3 22,-4.1c6.9,-1 19,-2.6 27,-3.5c8,-0.8 23,-1.9 33.5,-2.5c10.4,-0.5 36,-1 94.5,-1l0,-4.3c0,-2.3 -0.6,-13.7 -1.4,-25.2c-0.8,-11.6 -2,-30 -2.7,-41c-1.1,-19.1 -1.1,-20.2 0.8,-24.5c1.1,-2.5 3.3,-5.8 4.9,-7.4c1.6,-1.6 4.2,-3.5 5.9,-4.2c1.6,-0.7 4.8,-1.3 7,-1.3z" class="b"/>
 </g>
</svg>