<svg width="149" height="149" viewBox="0 0 149 149" fill="none" xmlns="http://www.w3.org/2000/svg">
<path d="M57.767 101.942C41.3026 122.452 65.8576 131.837 55.9062 148.544C63.9464 141.529 69.2872 131.929 71.0078 121.398C72.7284 110.868 70.721 100.067 65.3317 90.8578C53.6812 71.319 39.0777 52.0228 0 46.6426C17.8803 55.9063 15.4935 92.7186 57.767 101.942Z" fill="black"/>
<path d="M79.1262 102.71C51.6181 47.3301 128.924 26.2945 127.104 0C130.866 10.7605 149.595 61.9741 98.301 93.0421C130.663 94.5389 124.595 127.306 148.827 130.016C118.042 140.332 92.5162 129.571 79.288 102.994" fill="black"/>
</svg>
